<svg xmlns="http://www.w3.org/2000/svg" viewBox="0 0 800 640" fill="none">
  <rect width="800" height="640" fill="#E5E2DC"/>
  <rect x="80" y="100" width="640" height="440" rx="2" fill="#F5F3EF"/>
  <rect x="120" y="160" width="200" height="140" rx="2" fill="#4A584E" fill-opacity="0.07"/>
  <rect x="340" y="160" width="200" height="140" rx="2" fill="#4A584E" fill-opacity="0.1"/>
  <rect x="560" y="160" width="120" height="140" rx="2" fill="#4A584E" fill-opacity="0.06"/>
  <rect x="120" y="320" width="560" height="160" rx="2" fill="#4A584E" fill-opacity="0.04" stroke="#4A584E" stroke-opacity="0.08"/>
  <rect x="150" y="420" width="40" height="40" rx="1" fill="#4A584E" fill-opacity="0.15"/>
  <rect x="200" y="400" width="40" height="60" rx="1" fill="#4A584E" fill-opacity="0.2"/>
  <rect x="250" y="380" width="40" height="80" rx="1" fill="#4A584E" fill-opacity="0.12"/>
  <rect x="300" y="390" width="40" height="70" rx="1" fill="#4A584E" fill-opacity="0.18"/>
  <rect x="350" y="370" width="40" height="90" rx="1" fill="#4A584E" fill-opacity="0.22"/>
  <rect x="400" y="385" width="40" height="75" rx="1" fill="#4A584E" fill-opacity="0.14"/>
  <rect x="450" y="375" width="40" height="85" rx="1" fill="#4A584E" fill-opacity="0.2"/>
  <rect x="500" y="395" width="40" height="65" rx="1" fill="#4A584E" fill-opacity="0.16"/>
  <rect x="550" y="365" width="40" height="95" rx="1" fill="#4A584E" fill-opacity="0.24"/>
  <rect x="600" y="380" width="40" height="80" rx="1" fill="#4A584E" fill-opacity="0.18"/>
</svg>