<svg xmlns="http://www.w3.org/2000/svg" xmlns:xlink="http://www.w3.org/1999/xlink" width="3780" zoomAndPan="magnify" viewBox="0 0 2835 1417.499962" height="1890" preserveAspectRatio="xMidYMid meet" version="1.0"><defs><g/><clipPath id="68003b9b1a"><path d="M 0.5 0 L 2834.5 0 L 2834.5 1417 L 0.5 1417 Z M 0.5 0 " clip-rule="nonzero"/></clipPath><clipPath id="8087fc523c"><path d="M 0.5 0 L 2834.5 0 L 2834.5 1417 L 0.5 1417 Z M 0.5 0 " clip-rule="nonzero"/></clipPath><clipPath id="7100180f99"><path d="M 0.0507812 0.125 L 1305.667969 0.125 L 1305.667969 532.734375 L 0.0507812 532.734375 Z M 0.0507812 0.125 " clip-rule="nonzero"/></clipPath><clipPath id="5e2d9b32a9"><rect x="0" width="1306" y="0" height="533"/></clipPath><clipPath id="642d29a731"><path d="M 14.960938 0.148438 L 70.484375 0.148438 L 70.484375 22.289062 L 14.960938 22.289062 Z M 14.960938 0.148438 " clip-rule="nonzero"/></clipPath><clipPath id="6b467a521b"><path d="M 15.710938 0.148438 L 69.726562 0.148438 C 70.140625 0.148438 70.476562 0.484375 70.476562 0.898438 L 70.476562 21.539062 C 70.476562 21.953125 70.140625 22.289062 69.726562 22.289062 L 15.710938 22.289062 C 15.296875 22.289062 14.960938 21.953125 14.960938 21.539062 L 14.960938 0.898438 C 14.960938 0.484375 15.296875 0.148438 15.710938 0.148438 Z M 15.710938 0.148438 " clip-rule="nonzero"/></clipPath><clipPath id="cdcbed6106"><path d="M 0.960938 0.148438 L 56.484375 0.148438 L 56.484375 22.289062 L 0.960938 22.289062 Z M 0.960938 0.148438 " clip-rule="nonzero"/></clipPath><clipPath id="79baf15c53"><path d="M 1.710938 0.148438 L 55.726562 0.148438 C 56.140625 0.148438 56.476562 0.484375 56.476562 0.898438 L 56.476562 21.539062 C 56.476562 21.953125 56.140625 22.289062 55.726562 22.289062 L 1.710938 22.289062 C 1.296875 22.289062 0.960938 21.953125 0.960938 21.539062 L 0.960938 0.898438 C 0.960938 0.484375 1.296875 0.148438 1.710938 0.148438 Z M 1.710938 0.148438 " clip-rule="nonzero"/></clipPath><clipPath id="8c4de02c51"><rect x="0" width="57" y="0" height="23"/></clipPath><clipPath id="a0021f4426"><path d="M 91.636719 0.148438 L 147.164062 0.148438 L 147.164062 22.289062 L 91.636719 22.289062 Z M 91.636719 0.148438 " clip-rule="nonzero"/></clipPath><clipPath id="4203b49ddc"><path d="M 92.386719 0.148438 L 146.402344 0.148438 C 146.816406 0.148438 147.152344 0.484375 147.152344 0.898438 L 147.152344 21.539062 C 147.152344 21.953125 146.816406 22.289062 146.402344 22.289062 L 92.386719 22.289062 C 91.972656 22.289062 91.636719 21.953125 91.636719 21.539062 L 91.636719 0.898438 C 91.636719 0.484375 91.972656 0.148438 92.386719 0.148438 Z M 92.386719 0.148438 " clip-rule="nonzero"/></clipPath><clipPath id="ac75dcd3a7"><path d="M 0.636719 0.148438 L 56.164062 0.148438 L 56.164062 22.289062 L 0.636719 22.289062 Z M 0.636719 0.148438 " clip-rule="nonzero"/></clipPath><clipPath id="f6868d187b"><path d="M 1.386719 0.148438 L 55.402344 0.148438 C 55.816406 0.148438 56.152344 0.484375 56.152344 0.898438 L 56.152344 21.539062 C 56.152344 21.953125 55.816406 22.289062 55.402344 22.289062 L 1.386719 22.289062 C 0.972656 22.289062 0.636719 21.953125 0.636719 21.539062 L 0.636719 0.898438 C 0.636719 0.484375 0.972656 0.148438 1.386719 0.148438 Z M 1.386719 0.148438 " clip-rule="nonzero"/></clipPath><clipPath id="9d4826b5c3"><rect x="0" width="57" y="0" height="23"/></clipPath><clipPath id="798d87b849"><path d="M 168.316406 0.148438 L 223.839844 0.148438 L 223.839844 22.289062 L 168.316406 22.289062 Z M 168.316406 0.148438 " clip-rule="nonzero"/></clipPath><clipPath id="4aefffe43a"><path d="M 169.066406 0.148438 L 223.078125 0.148438 C 223.492188 0.148438 223.828125 0.484375 223.828125 0.898438 L 223.828125 21.539062 C 223.828125 21.953125 223.492188 22.289062 223.078125 22.289062 L 169.066406 22.289062 C 168.652344 22.289062 168.316406 21.953125 168.316406 21.539062 L 168.316406 0.898438 C 168.316406 0.484375 168.652344 0.148438 169.066406 0.148438 Z M 169.066406 0.148438 " clip-rule="nonzero"/></clipPath><clipPath id="618f27378d"><path d="M 0.316406 0.148438 L 55.839844 0.148438 L 55.839844 22.289062 L 0.316406 22.289062 Z M 0.316406 0.148438 " clip-rule="nonzero"/></clipPath><clipPath id="905803ff56"><path d="M 1.066406 0.148438 L 55.078125 0.148438 C 55.492188 0.148438 55.828125 0.484375 55.828125 0.898438 L 55.828125 21.539062 C 55.828125 21.953125 55.492188 22.289062 55.078125 22.289062 L 1.066406 22.289062 C 0.652344 22.289062 0.316406 21.953125 0.316406 21.539062 L 0.316406 0.898438 C 0.316406 0.484375 0.652344 0.148438 1.066406 0.148438 Z M 1.066406 0.148438 " clip-rule="nonzero"/></clipPath><clipPath id="b28a3e2234"><rect x="0" width="56" y="0" height="23"/></clipPath><clipPath id="39d595fd86"><path d="M 244.992188 0.148438 L 300.515625 0.148438 L 300.515625 22.289062 L 244.992188 22.289062 Z M 244.992188 0.148438 " clip-rule="nonzero"/></clipPath><clipPath id="5efb3cd764"><path d="M 245.742188 0.148438 L 299.757812 0.148438 C 300.171875 0.148438 300.507812 0.484375 300.507812 0.898438 L 300.507812 21.539062 C 300.507812 21.953125 300.171875 22.289062 299.757812 22.289062 L 245.742188 22.289062 C 245.328125 22.289062 244.992188 21.953125 244.992188 21.539062 L 244.992188 0.898438 C 244.992188 0.484375 245.328125 0.148438 245.742188 0.148438 Z M 245.742188 0.148438 " clip-rule="nonzero"/></clipPath><clipPath id="a95adec6d4"><path d="M 0.992188 0.148438 L 56.515625 0.148438 L 56.515625 22.289062 L 0.992188 22.289062 Z M 0.992188 0.148438 " clip-rule="nonzero"/></clipPath><clipPath id="393948b30b"><path d="M 1.742188 0.148438 L 55.757812 0.148438 C 56.171875 0.148438 56.507812 0.484375 56.507812 0.898438 L 56.507812 21.539062 C 56.507812 21.953125 56.171875 22.289062 55.757812 22.289062 L 1.742188 22.289062 C 1.328125 22.289062 0.992188 21.953125 0.992188 21.539062 L 0.992188 0.898438 C 0.992188 0.484375 1.328125 0.148438 1.742188 0.148438 Z M 1.742188 0.148438 " clip-rule="nonzero"/></clipPath><clipPath id="b975ee5934"><rect x="0" width="57" y="0" height="23"/></clipPath><clipPath id="be7683e967"><rect x="0" width="1306" y="0" height="533"/></clipPath><clipPath id="57a7806f9f"><path d="M 281 215 L 751.351562 215 L 751.351562 1154.707031 L 281 1154.707031 Z M 281 215 " clip-rule="nonzero"/></clipPath><clipPath id="66427ff47b"><rect x="0" width="471" y="0" height="940"/></clipPath><clipPath id="2baacf3a77"><path d="M 0.417969 0.234375 L 553 0.234375 L 553 942 L 0.417969 942 Z M 0.417969 0.234375 " clip-rule="nonzero"/></clipPath><clipPath id="5a74181d51"><rect x="0" width="553" y="0" height="942"/></clipPath><clipPath id="c5094f85c7"><rect x="0" width="752" y="0" height="1155"/></clipPath><clipPath id="f27a6f5c25"><rect x="0" width="2835" y="0" height="1417"/></clipPath></defs><g clip-path="url(#68003b9b1a)"><path fill="#ffffff" d="M 0.5 0 L 2834.5 0 L 2834.5 1417 L 0.5 1417 Z M 0.5 0 " fill-opacity="1" fill-rule="nonzero"/><g transform="matrix(1, 0, 0, 1, 0, 0)"><g clip-path="url(#f27a6f5c25)"><g clip-path="url(#8087fc523c)"><path fill="#f5f3ef" d="M 0.5 0 L 2834.855469 0 L 2834.855469 1417.175781 L 0.5 1417.175781 Z M 0.5 0 " fill-opacity="1" fill-rule="nonzero"/></g><g fill="#4a584e" fill-opacity="1"><g transform="translate(175.768266, 1069.336398)"><g><path d="M 160.3125 -154.6875 L 160.3125 -147.921875 C 152.507812 -148.078125 147.179688 -147.175781 144.328125 -145.21875 C 140.117188 -142.519531 135.914062 -135.316406 131.71875 -123.609375 L 82.859375 4.734375 L 73.84375 4.734375 L 20.9375 -147.921875 L 4.046875 -147.921875 L 4.046875 -154.6875 L 62.375 -154.6875 L 62.375 -147.921875 L 44.359375 -147.921875 L 85.78125 -29.046875 L 122.703125 -123.609375 C 125.410156 -130.660156 126.765625 -135.765625 126.765625 -138.921875 C 126.765625 -142.078125 126.3125 -144.328125 125.40625 -145.671875 C 124.8125 -147.171875 120.085938 -147.921875 111.234375 -147.921875 L 111.234375 -154.6875 Z M 160.3125 -154.6875 "/></g></g></g><g fill="#4a584e" fill-opacity="1"><g transform="translate(300.501176, 1069.336398)"><g><path d="M 97.046875 -52.234375 L 25.4375 -52.234375 C 25.4375 -39.023438 28.738281 -28.742188 35.34375 -21.390625 C 42.101562 -13.429688 52.007812 -9.453125 65.0625 -9.453125 C 71.96875 -9.453125 80.898438 -12.90625 91.859375 -19.8125 L 94.796875 -17.5625 C 84.140625 -4.5 70.925781 2.03125 55.15625 2.03125 C 39.394531 2.03125 27.015625 -2.695312 18.015625 -12.15625 C 9.609375 -21.3125 5.40625 -33.46875 5.40625 -48.625 C 5.40625 -63.789062 9.941406 -76.890625 19.015625 -87.921875 C 28.097656 -98.953125 40.296875 -104.46875 55.609375 -104.46875 C 68.222656 -104.46875 78.359375 -100.226562 86.015625 -91.75 C 93.671875 -83.269531 97.5 -72.875 97.5 -60.5625 C 97.5 -58.914062 97.347656 -56.140625 97.046875 -52.234375 Z M 77.671875 -60.34375 C 77.671875 -71.144531 75.679688 -80 71.703125 -86.90625 C 67.734375 -93.8125 61.769531 -97.265625 53.8125 -97.265625 C 45.851562 -97.265625 39.171875 -94.035156 33.765625 -87.578125 C 28.367188 -81.128906 25.671875 -72.203125 25.671875 -60.796875 C 53.734375 -60.046875 71.066406 -59.894531 77.671875 -60.34375 Z M 77.671875 -60.34375 "/></g></g></g><g fill="#4a584e" fill-opacity="1"><g transform="translate(383.806387, 1069.336398)"><g><path d="M 24.09375 -11.265625 L 24.09375 -88.9375 C 23.9375 -94.039062 21.382812 -96.59375 16.4375 -96.59375 L 6.078125 -96.59375 L 6.078125 -102.890625 L 43 -102.890625 L 43 -82.1875 C 44.65625 -86.238281 47.734375 -90.585938 52.234375 -95.234375 C 58.992188 -101.992188 66.125 -105.375 73.625 -105.375 C 78.125 -105.375 81.722656 -103.867188 84.421875 -100.859375 C 87.128906 -97.859375 88.484375 -94.257812 88.484375 -90.0625 C 88.484375 -81.800781 84.734375 -77.296875 77.234375 -76.546875 C 74.222656 -83.148438 69.269531 -86.453125 62.375 -86.453125 C 57.414062 -86.453125 52.910156 -83.972656 48.859375 -79.015625 C 44.804688 -74.066406 42.78125 -68.441406 42.78125 -62.140625 L 42.78125 -11.265625 C 43.226562 -7.804688 44.953125 -6.078125 47.953125 -6.078125 L 61.015625 -6.078125 L 61.015625 0 L 6.296875 0 L 6.296875 -6.078125 L 18.90625 -6.078125 C 21.613281 -6.078125 23.34375 -7.804688 24.09375 -11.265625 Z M 24.09375 -11.265625 "/></g></g></g><g fill="#4a584e" fill-opacity="1"><g transform="translate(454.052857, 1069.336398)"><g><path d="M 32.421875 -149.953125 C 35.722656 -149.953125 38.535156 -148.828125 40.859375 -146.578125 C 43.191406 -144.328125 44.394531 -141.507812 44.46875 -138.125 C 44.539062 -134.75 43.300781 -131.859375 40.75 -129.453125 C 38.195312 -127.054688 35.34375 -125.859375 32.1875 -125.859375 C 29.039062 -125.859375 26.226562 -127.054688 23.75 -129.453125 C 21.269531 -131.859375 20.03125 -134.597656 20.03125 -137.671875 C 20.03125 -140.753906 21.269531 -143.570312 23.75 -146.125 C 26.226562 -148.675781 29.117188 -149.953125 32.421875 -149.953125 Z M 42.546875 -102.671875 L 42.546875 -11.265625 C 42.546875 -7.804688 44.203125 -6.078125 47.515625 -6.078125 L 60.5625 -6.078125 L 60.5625 0 L 6.078125 0 L 6.078125 -6.078125 L 19.140625 -6.078125 C 22.441406 -6.078125 24.09375 -7.804688 24.09375 -11.265625 L 24.09375 -91.40625 C 23.644531 -94.863281 21.992188 -96.59375 19.140625 -96.59375 L 6.078125 -96.59375 L 6.078125 -102.671875 Z M 42.546875 -102.671875 "/></g></g></g><g fill="#4a584e" fill-opacity="1"><g transform="translate(496.605758, 1069.336398)"><g><path d="M 132.390625 -6.078125 L 132.390625 0 L 95.234375 0 L 96.140625 -19.8125 C 93.441406 -14.257812 88.9375 -9.378906 82.625 -5.171875 C 75.269531 0.222656 66.789062 2.921875 57.1875 2.921875 C 42.175781 2.921875 30.691406 -2.21875 22.734375 -12.5 C 14.785156 -22.78125 10.8125 -36.0625 10.8125 -52.34375 C 10.8125 -68.632812 16.363281 -82.109375 27.46875 -92.765625 C 38.570312 -103.421875 52.234375 -108.445312 68.453125 -107.84375 C 74.753906 -107.09375 80.609375 -105.59375 86.015625 -103.34375 C 90.816406 -100.789062 93.96875 -98.164062 95.46875 -95.46875 L 95.46875 -144.09375 C 95.3125 -149.351562 92.609375 -151.984375 87.359375 -151.984375 L 76.78125 -151.984375 L 76.78125 -158.28125 L 113.921875 -158.28125 L 113.921875 -11.484375 C 114.222656 -7.878906 115.875 -6.078125 118.875 -6.078125 Z M 95.46875 -52.015625 L 95.46875 -80.609375 C 93.8125 -85.710938 89.984375 -90.140625 83.984375 -93.890625 C 77.984375 -97.640625 71.039062 -99.515625 63.15625 -99.515625 C 55.269531 -99.515625 48.328125 -96.363281 42.328125 -90.0625 C 35.273438 -82.40625 31.222656 -71.070312 30.171875 -56.0625 C 29.265625 -44.507812 32.039062 -34.226562 38.5 -25.21875 C 45.40625 -15.15625 54.257812 -10.125 65.0625 -10.125 C 75.875 -10.125 83.90625 -14.703125 89.15625 -23.859375 C 93.363281 -31.222656 95.46875 -40.609375 95.46875 -52.015625 Z M 95.46875 -52.015625 "/></g></g></g><g fill="#4a584e" fill-opacity="1"><g transform="translate(611.432104, 1069.336398)"><g><path d="M 32.421875 -149.953125 C 35.722656 -149.953125 38.535156 -148.828125 40.859375 -146.578125 C 43.191406 -144.328125 44.394531 -141.507812 44.46875 -138.125 C 44.539062 -134.75 43.300781 -131.859375 40.75 -129.453125 C 38.195312 -127.054688 35.34375 -125.859375 32.1875 -125.859375 C 29.039062 -125.859375 26.226562 -127.054688 23.75 -129.453125 C 21.269531 -131.859375 20.03125 -134.597656 20.03125 -137.671875 C 20.03125 -140.753906 21.269531 -143.570312 23.75 -146.125 C 26.226562 -148.675781 29.117188 -149.953125 32.421875 -149.953125 Z M 42.546875 -102.671875 L 42.546875 -11.265625 C 42.546875 -7.804688 44.203125 -6.078125 47.515625 -6.078125 L 60.5625 -6.078125 L 60.5625 0 L 6.078125 0 L 6.078125 -6.078125 L 19.140625 -6.078125 C 22.441406 -6.078125 24.09375 -7.804688 24.09375 -11.265625 L 24.09375 -91.40625 C 23.644531 -94.863281 21.992188 -96.59375 19.140625 -96.59375 L 6.078125 -96.59375 L 6.078125 -102.671875 Z M 42.546875 -102.671875 "/></g></g></g><g fill="#4a584e" fill-opacity="1"><g transform="translate(653.98496, 1069.336398)"><g><path d="M 108.078125 -6.296875 L 108.078125 0 L 72.046875 0 L 72.046875 -18.46875 C 58.691406 -4.351562 46.082031 2.703125 34.21875 2.703125 C 26.269531 2.703125 19.890625 0.375 15.078125 -4.28125 C 9.828125 -8.9375 7.203125 -15.539062 7.203125 -24.09375 C 7.203125 -35.945312 11.78125 -44.800781 20.9375 -50.65625 C 27.84375 -54.863281 37.523438 -58.09375 49.984375 -60.34375 L 72.046875 -64.171875 C 72.347656 -74.828125 71.445312 -82.628906 69.34375 -87.578125 C 66.34375 -94.640625 61.164062 -98.171875 53.8125 -98.171875 C 41.050781 -98.171875 34.597656 -93.890625 34.453125 -85.328125 C 34.453125 -83.828125 35.3125 -82.0625 37.03125 -80.03125 C 38.757812 -78.007812 39.625 -76.925781 39.625 -76.78125 C 39.78125 -74.53125 38.691406 -72.648438 36.359375 -71.140625 C 34.035156 -69.640625 31.898438 -69.117188 29.953125 -69.578125 C 22.441406 -69.578125 18.757812 -73.738281 18.90625 -82.0625 C 19.0625 -90.394531 24.242188 -96.664062 34.453125 -100.875 C 40.753906 -103.269531 47.429688 -104.46875 54.484375 -104.46875 C 66.347656 -104.46875 75.207031 -101.164062 81.0625 -94.5625 C 86.914062 -87.363281 89.84375 -75.957031 89.84375 -60.34375 L 89.84375 -11.265625 C 89.84375 -9.753906 90.363281 -8.546875 91.40625 -7.640625 C 92.457031 -6.742188 93.660156 -6.296875 95.015625 -6.296875 Z M 72.046875 -27.46875 L 72.046875 -56.734375 C 58.992188 -55.085938 48.265625 -52.613281 39.859375 -49.3125 C 35.953125 -47.8125 32.722656 -45.035156 30.171875 -40.984375 C 27.617188 -36.929688 26.34375 -32.5 26.34375 -27.6875 C 26.34375 -22.882812 28.03125 -18.832031 31.40625 -15.53125 C 34.78125 -12.226562 38.832031 -10.460938 43.5625 -10.234375 C 48.289062 -10.015625 53.316406 -11.59375 58.640625 -14.96875 C 63.972656 -18.34375 68.441406 -22.507812 72.046875 -27.46875 Z M 72.046875 -27.46875 "/></g></g></g><g fill="#4a584e" fill-opacity="1"><g transform="translate(745.170448, 1069.336398)"><g><path d="M 128.796875 -6.078125 L 128.796875 0 L 73.84375 0 L 73.84375 -6.078125 L 87.140625 -6.078125 C 89.984375 -6.078125 91.632812 -7.804688 92.09375 -11.265625 L 92.09375 -64.625 C 92.09375 -73.320312 89.835938 -80.109375 85.328125 -84.984375 C 80.828125 -89.867188 75.050781 -92.3125 68 -92.3125 C 60.945312 -92.3125 54.414062 -89.984375 48.40625 -85.328125 C 42.707031 -80.523438 39.859375 -76.023438 39.859375 -71.828125 L 39.859375 -11.265625 C 40.304688 -7.804688 42.03125 -6.078125 45.03125 -6.078125 L 58.09375 -6.078125 L 58.09375 0 L 3.15625 0 L 3.15625 -6.078125 L 16.21875 -6.078125 C 19.21875 -6.078125 20.941406 -7.804688 21.390625 -11.265625 L 21.390625 -89.15625 C 21.242188 -94.257812 18.691406 -96.8125 13.734375 -96.8125 L 3.15625 -96.8125 L 3.15625 -102.890625 L 40.078125 -102.890625 L 40.078125 -96.8125 C 39.929688 -95.007812 39.859375 -92.910156 39.859375 -90.515625 L 39.859375 -86.015625 C 41.054688 -88.859375 44.207031 -92.457031 49.3125 -96.8125 C 56.96875 -102.820312 65.296875 -105.828125 74.296875 -105.828125 C 98.460938 -105.828125 110.546875 -92.992188 110.546875 -67.328125 L 110.546875 -11.265625 C 111.003906 -7.804688 112.734375 -6.078125 115.734375 -6.078125 Z M 128.796875 -6.078125 "/></g></g></g><g fill="#4a584e" fill-opacity="1"><g transform="translate(330.336178, 1128.931244)"><g><path d="M 26.828125 -5.875 L 27.46875 -5.140625 C 25.851562 -2.878906 24.125 -1.332031 22.28125 -0.5 C 20.445312 0.320312 18.203125 0.734375 15.546875 0.734375 C 11.628906 0.734375 8.296875 -0.867188 5.546875 -4.078125 C 2.796875 -7.347656 1.441406 -11.359375 1.484375 -16.109375 C 1.535156 -20.867188 2.90625 -24.753906 5.59375 -27.765625 C 8.28125 -30.773438 11.597656 -32.28125 15.546875 -32.28125 C 18.054688 -32.28125 19.875 -32.164062 21 -31.9375 C 22.132812 -31.707031 23.492188 -31.289062 25.078125 -30.6875 L 25.078125 -23.484375 L 23.703125 -23.484375 C 23.492188 -26.171875 22.773438 -28.117188 21.546875 -29.328125 C 20.328125 -30.535156 18.375 -31.078125 15.6875 -30.953125 C 9.75 -30.679688 6.78125 -25.625 6.78125 -15.78125 C 6.78125 -11.4375 7.546875 -7.875 9.078125 -5.09375 C 10.671875 -2.34375 12.75 -0.941406 15.3125 -0.890625 C 17.882812 -0.847656 19.992188 -1.21875 21.640625 -2 C 23.296875 -2.78125 25.023438 -4.070312 26.828125 -5.875 Z M 26.828125 -5.875 "/></g></g></g><g fill="#4a584e" fill-opacity="1"><g transform="translate(381.01257, 1128.931244)"><g><path d="M 21.515625 -2.46875 L 12.75 -15 L 9.953125 -15 L 10.046875 -1.421875 L 14.3125 -1.421875 L 14.3125 0 L 1.5625 0 L 1.5625 -1.421875 L 5.828125 -1.421875 L 5.828125 -30.171875 L 1.5625 -30.171875 L 1.5625 -31.59375 L 15.453125 -31.59375 C 19.148438 -31.59375 21.960938 -30.859375 23.890625 -29.390625 C 25.816406 -27.921875 26.78125 -25.960938 26.78125 -23.515625 C 26.78125 -21.078125 25.925781 -19.09375 24.21875 -17.5625 C 22.5625 -16.1875 20.390625 -15.40625 17.703125 -15.21875 L 27.109375 -2.46875 C 27.597656 -1.863281 28.679688 -1.484375 30.359375 -1.328125 L 30.359375 0.046875 C 28.128906 -0.046875 24.597656 -0.046875 19.765625 0.046875 L 19.8125 -1.421875 L 21.09375 -1.421875 C 21.519531 -1.515625 21.734375 -1.675781 21.734375 -1.90625 C 21.734375 -2.132812 21.660156 -2.320312 21.515625 -2.46875 Z M 13.9375 -16.328125 C 19.5 -16.328125 22.222656 -18.726562 22.109375 -23.53125 C 21.984375 -27.957031 19.582031 -30.171875 14.90625 -30.171875 L 10.046875 -30.171875 L 9.953125 -16.328125 Z M 13.9375 -16.328125 "/></g></g></g><g fill="#4a584e" fill-opacity="1"><g transform="translate(433.9818, 1128.931244)"><g><path d="M 28.015625 -10.953125 L 29.484375 -10.953125 L 28.984375 0 L 2.34375 0 L 2.34375 -1.421875 L 6.65625 -1.421875 L 6.65625 -30.171875 L 2.34375 -30.171875 L 2.34375 -31.59375 L 28.25 -31.59375 L 28.34375 -22.28125 L 26.921875 -22.28125 C 26.703125 -24.945312 25.96875 -26.894531 24.71875 -28.125 C 23.46875 -29.363281 21.421875 -30.015625 18.578125 -30.078125 L 10.734375 -30.171875 L 10.734375 -16.875 L 16.328125 -16.875 C 17.640625 -16.875 18.617188 -17.253906 19.265625 -18.015625 C 19.960938 -18.992188 20.3125 -20.414062 20.3125 -22.28125 L 21.734375 -22.28125 L 21.734375 -9.578125 L 20.3125 -9.578125 C 20.3125 -11.390625 19.9375 -12.796875 19.1875 -13.796875 C 18.4375 -14.804688 17.484375 -15.3125 16.328125 -15.3125 L 10.734375 -15.3125 L 10.734375 -1.421875 L 19.3125 -1.5625 C 20.164062 -1.5625 21.195312 -1.789062 22.40625 -2.25 C 23.613281 -2.707031 24.503906 -3.226562 25.078125 -3.8125 C 26.921875 -5.519531 27.898438 -7.898438 28.015625 -10.953125 Z M 28.015625 -10.953125 "/></g></g></g><g fill="#4a584e" fill-opacity="1"><g transform="translate(488.785296, 1128.931244)"><g><path d="M 33.25 -1.421875 L 33.25 0 L 21.328125 0 L 21.328125 -1.421875 L 25 -1.421875 L 21.875 -10.453125 L 10.828125 -10.453125 L 9.078125 -6.328125 C 8.523438 -4.921875 8.25 -3.890625 8.25 -3.234375 C 8.25 -2.578125 8.34375 -2.109375 8.53125 -1.828125 C 8.71875 -1.554688 9.679688 -1.421875 11.421875 -1.421875 L 11.421875 0 L 1.421875 0 L 1.421875 -1.421875 C 3.015625 -1.390625 4.171875 -1.59375 4.890625 -2.03125 C 5.609375 -2.476562 6.394531 -3.910156 7.25 -6.328125 L 17.203125 -32.46875 L 19.03125 -32.46875 L 29.859375 -1.421875 Z M 11.46875 -12.203125 L 21.234375 -12.203125 L 16.6875 -25.640625 Z M 11.46875 -12.203125 "/></g></g></g><g fill="#4a584e" fill-opacity="1"><g transform="translate(543.130068, 1128.931244)"><g><path d="M 29.4375 -31.59375 L 29.53125 -22.28125 L 28.15625 -22.28125 C 27.96875 -24.851562 27.28125 -26.757812 26.09375 -28 C 24.90625 -29.238281 22.8125 -29.929688 19.8125 -30.078125 L 17.703125 -30.171875 L 17.703125 -1.421875 L 22.015625 -1.421875 L 22.015625 0 L 9.265625 0 L 9.265625 -1.421875 L 13.53125 -1.421875 L 13.53125 -30.171875 L 11.46875 -30.078125 C 8.5 -29.960938 6.425781 -29.316406 5.25 -28.140625 C 4.070312 -26.960938 3.347656 -25.007812 3.078125 -22.28125 L 1.75 -22.28125 L 1.828125 -31.59375 Z M 29.4375 -31.59375 "/></g></g></g><g fill="#4a584e" fill-opacity="1"><g transform="translate(596.55785, 1128.931244)"><g><path d="M 15.359375 -1.421875 L 15.359375 0 L 2.25 0 L 2.25 -1.421875 L 6.5625 -1.421875 L 6.5625 -30.171875 L 2.25 -30.171875 L 2.25 -31.59375 L 15.359375 -31.59375 L 15.359375 -30.171875 L 11.09375 -30.171875 L 11.09375 -1.421875 Z M 15.359375 -1.421875 "/></g></g></g><g fill="#4a584e" fill-opacity="1"><g transform="translate(636.778908, 1128.931244)"><g><path d="M 32.65625 -31.5 L 32.65625 -30.125 C 31.0625 -30.15625 29.972656 -29.972656 29.390625 -29.578125 C 28.535156 -29.023438 27.679688 -27.554688 26.828125 -25.171875 L 16.875 0.96875 L 15.046875 0.96875 L 4.265625 -30.125 L 0.828125 -30.125 L 0.828125 -31.5 L 12.703125 -31.5 L 12.703125 -30.125 L 9.03125 -30.125 L 17.46875 -5.921875 L 25 -25.171875 C 25.539062 -26.609375 25.8125 -27.648438 25.8125 -28.296875 C 25.8125 -28.941406 25.722656 -29.398438 25.546875 -29.671875 C 25.421875 -29.972656 24.457031 -30.125 22.65625 -30.125 L 22.65625 -31.5 Z M 32.65625 -31.5 "/></g></g></g><g fill="#4a584e" fill-opacity="1"><g transform="translate(692.545399, 1128.931244)"><g><path d="M 28.015625 -10.953125 L 29.484375 -10.953125 L 28.984375 0 L 2.34375 0 L 2.34375 -1.421875 L 6.65625 -1.421875 L 6.65625 -30.171875 L 2.34375 -30.171875 L 2.34375 -31.59375 L 28.25 -31.59375 L 28.34375 -22.28125 L 26.921875 -22.28125 C 26.703125 -24.945312 25.96875 -26.894531 24.71875 -28.125 C 23.46875 -29.363281 21.421875 -30.015625 18.578125 -30.078125 L 10.734375 -30.171875 L 10.734375 -16.875 L 16.328125 -16.875 C 17.640625 -16.875 18.617188 -17.253906 19.265625 -18.015625 C 19.960938 -18.992188 20.3125 -20.414062 20.3125 -22.28125 L 21.734375 -22.28125 L 21.734375 -9.578125 L 20.3125 -9.578125 C 20.3125 -11.390625 19.9375 -12.796875 19.1875 -13.796875 C 18.4375 -14.804688 17.484375 -15.3125 16.328125 -15.3125 L 10.734375 -15.3125 L 10.734375 -1.421875 L 19.3125 -1.5625 C 20.164062 -1.5625 21.195312 -1.789062 22.40625 -2.25 C 23.613281 -2.707031 24.503906 -3.226562 25.078125 -3.8125 C 26.921875 -5.519531 27.898438 -7.898438 28.015625 -10.953125 Z M 28.015625 -10.953125 "/></g></g></g><g transform="matrix(1, 0, 0, 1, 142, 330)"><g clip-path="url(#be7683e967)"><g clip-path="url(#7100180f99)"><g transform="matrix(1, 0, 0, 1, -0.000000000000028422, -0.000000000000056843)"><g clip-path="url(#5e2d9b32a9)"><g fill="#0b0b0b" fill-opacity="1"><g transform="translate(0.199899, 177.152432)"><g><path d="M 73.34375 -26.453125 C 73.34375 -17.816406 69.992188 -10.84375 63.296875 -5.53125 C 56.609375 -0.21875 48.984375 2.4375 40.421875 2.4375 C 31.859375 2.4375 24.132812 0.8125 17.25 -2.4375 C 15.25 -3.1875 14.0625 -2.0625 13.6875 0.9375 C 11.5625 0.5625 10.125 0.5625 9.375 0.9375 L 9.375 -29.828125 L 14.8125 -29.828125 L 14.8125 -24.390625 C 14.8125 -20.378906 17.21875 -16.03125 22.03125 -11.34375 C 26.851562 -6.65625 32.390625 -4.375 38.640625 -4.5 C 44.890625 -4.625 49.953125 -5.9375 53.828125 -8.4375 C 57.703125 -10.9375 59.640625 -14.625 59.640625 -19.5 C 59.640625 -24.382812 56.390625 -28.203125 49.890625 -30.953125 C 41.015625 -34.078125 32.390625 -37.328125 24.015625 -40.703125 C 13.628906 -44.953125 8.4375 -51.640625 8.4375 -60.765625 C 8.4375 -69.898438 12.0625 -76.78125 19.3125 -81.40625 C 25.320312 -85.40625 33.140625 -87.40625 42.765625 -87.40625 C 46.765625 -87.40625 52.828125 -86.09375 60.953125 -83.46875 L 60.953125 -87.03125 L 66.015625 -87.03125 L 66.015625 -62.078125 L 60.578125 -62.078125 L 60.578125 -66.015625 C 60.578125 -70.523438 58.484375 -74.1875 54.296875 -77 C 50.109375 -79.8125 44.796875 -81.21875 38.359375 -81.21875 C 31.921875 -81.21875 27.203125 -79.53125 24.203125 -76.15625 C 21.816406 -73.15625 20.90625 -69.835938 21.46875 -66.203125 C 22.03125 -62.578125 23.816406 -59.890625 26.828125 -58.140625 C 28.203125 -57.140625 33.671875 -54.921875 43.234375 -51.484375 C 52.796875 -48.046875 59.828125 -44.953125 64.328125 -42.203125 C 70.335938 -38.078125 73.34375 -32.828125 73.34375 -26.453125 Z M 73.34375 -26.453125 "/></g></g></g><g fill="#0b0b0b" fill-opacity="1"><g transform="translate(60.027661, 177.152432)"><g><path d="M 107.46875 -5.0625 L 107.46875 0.1875 L 77.46875 0.1875 L 77.28125 -15 C 69.519531 -3.375 58.453125 2.4375 44.078125 2.4375 C 32.703125 2.4375 25.195312 -0.9375 21.5625 -7.6875 C 19.4375 -11.5625 18.375 -18.691406 18.375 -29.078125 L 18.375 -74.28125 C 18 -78.53125 15.875 -80.65625 12 -80.65625 L 3.1875 -80.65625 L 3.1875 -85.71875 L 33.765625 -85.71875 L 33.765625 -30.953125 C 33.765625 -23.066406 35.109375 -17.40625 37.796875 -13.96875 C 40.484375 -10.53125 45.703125 -8.8125 53.453125 -8.8125 C 58.953125 -8.8125 64.203125 -11.1875 69.203125 -15.9375 C 74.210938 -20.9375 76.71875 -25.628906 76.71875 -30.015625 L 76.71875 -74.28125 C 76.46875 -78.53125 74.210938 -80.65625 69.953125 -80.65625 L 61.328125 -80.65625 L 61.328125 -85.71875 L 91.90625 -85.71875 L 91.90625 -9.1875 C 91.90625 -7.8125 92.4375 -6.78125 93.5 -6.09375 C 94.5625 -5.40625 95.59375 -5.0625 96.59375 -5.0625 Z M 107.46875 -5.0625 "/></g></g></g><g fill="#0b0b0b" fill-opacity="1"><g transform="translate(155.302551, 177.152432)"><g><path d="M 90.03125 -5.25 L 90.03125 0 L 60.015625 0 L 60.015625 -15.375 C 48.890625 -3.625 38.390625 2.25 28.515625 2.25 C 21.878906 2.25 16.5625 0.3125 12.5625 -3.5625 C 8.1875 -7.4375 6 -12.9375 6 -20.0625 C 6 -29.945312 9.8125 -37.328125 17.4375 -42.203125 C 23.195312 -45.703125 31.265625 -48.390625 41.640625 -50.265625 L 60.015625 -53.453125 C 60.265625 -62.328125 59.515625 -68.832031 57.765625 -72.96875 C 55.265625 -78.84375 50.953125 -81.78125 44.828125 -81.78125 C 34.203125 -81.78125 28.828125 -78.21875 28.703125 -71.09375 C 28.703125 -69.832031 29.421875 -68.359375 30.859375 -66.671875 C 32.296875 -64.984375 33.015625 -64.078125 33.015625 -63.953125 C 33.140625 -62.078125 32.234375 -60.515625 30.296875 -59.265625 C 28.359375 -58.015625 26.578125 -57.578125 24.953125 -57.953125 C 18.691406 -57.953125 15.625 -61.421875 15.75 -68.359375 C 15.875 -75.304688 20.191406 -80.53125 28.703125 -84.03125 C 33.953125 -86.03125 39.515625 -87.03125 45.390625 -87.03125 C 55.265625 -87.03125 62.640625 -84.28125 67.515625 -78.78125 C 72.398438 -72.769531 74.84375 -63.265625 74.84375 -50.265625 L 74.84375 -9.375 C 74.84375 -8.125 75.28125 -7.125 76.15625 -6.375 C 77.03125 -5.625 78.03125 -5.25 79.15625 -5.25 Z M 60.015625 -22.875 L 60.015625 -47.265625 C 49.140625 -45.890625 40.203125 -43.828125 33.203125 -41.078125 C 29.953125 -39.828125 27.257812 -37.515625 25.125 -34.140625 C 23 -30.765625 21.9375 -27.070312 21.9375 -23.0625 C 21.9375 -19.0625 23.34375 -15.6875 26.15625 -12.9375 C 28.976562 -10.1875 32.359375 -8.71875 36.296875 -8.53125 C 40.234375 -8.34375 44.421875 -9.65625 48.859375 -12.46875 C 53.296875 -15.28125 57.015625 -18.75 60.015625 -22.875 Z M 60.015625 -22.875 "/></g></g></g><g fill="#0b0b0b" fill-opacity="1"><g transform="translate(231.259695, 177.152432)"><g/></g></g><g fill="#0b0b0b" fill-opacity="1"><g transform="translate(279.459305, 177.152432)"><g><path d="M 159.609375 -5.0625 L 159.609375 0 L 114.03125 0 L 114.03125 -5.0625 L 125.109375 -5.0625 C 127.484375 -5.0625 129.046875 -6.5 129.796875 -9.375 L 129.796875 -53.640625 C 129.796875 -60.265625 128.296875 -65.734375 125.296875 -70.046875 C 122.296875 -74.367188 118.101562 -76.53125 112.71875 -76.53125 C 107.34375 -76.53125 102.21875 -74.460938 97.34375 -70.328125 C 92.46875 -66.453125 90.03125 -62.828125 90.03125 -59.453125 L 89.84375 -9.375 C 90.46875 -6.5 91.90625 -5.0625 94.15625 -5.0625 L 105.03125 -5.0625 L 105.03125 0 L 59.640625 0 L 59.640625 -5.0625 L 70.328125 -5.0625 C 72.710938 -5.0625 74.21875 -6.5 74.84375 -9.375 L 74.84375 -53.640625 C 74.84375 -60.015625 73.40625 -65.328125 70.53125 -69.578125 C 67.644531 -74.210938 63.421875 -76.53125 57.859375 -76.53125 C 52.296875 -76.53125 47.171875 -74.617188 42.484375 -70.796875 C 37.796875 -66.984375 35.453125 -63.203125 35.453125 -59.453125 L 35.453125 -9.375 C 35.828125 -6.5 37.203125 -5.0625 39.578125 -5.0625 L 50.453125 -5.0625 L 50.453125 0 L 4.875 0 L 4.875 -5.0625 L 15.75 -5.0625 C 18.125 -5.0625 19.5 -6.5 19.875 -9.375 L 19.875 -74.09375 C 19.75 -78.34375 17.5625 -80.46875 13.3125 -80.46875 L 4.6875 -80.46875 L 4.6875 -85.71875 L 35.453125 -85.71875 L 35.453125 -71.46875 C 37.953125 -75.96875 41.265625 -79.53125 45.390625 -82.15625 C 50.890625 -85.90625 57.015625 -87.78125 63.765625 -87.78125 C 75.648438 -87.78125 84.03125 -82.09375 88.90625 -70.71875 C 96.28125 -82.09375 106.222656 -87.78125 118.734375 -87.78125 C 126.359375 -87.78125 132.640625 -85.125 137.578125 -79.8125 C 142.515625 -74.5 144.984375 -67.335938 144.984375 -58.328125 L 144.796875 -9.375 C 145.046875 -6.5 146.359375 -5.0625 148.734375 -5.0625 Z M 159.609375 -5.0625 "/></g></g></g><g fill="#0b0b0b" fill-opacity="1"><g transform="translate(426.873358, 177.152432)"><g><path d="M 90.03125 -5.25 L 90.03125 0 L 60.015625 0 L 60.015625 -15.375 C 48.890625 -3.625 38.390625 2.25 28.515625 2.25 C 21.878906 2.25 16.5625 0.3125 12.5625 -3.5625 C 8.1875 -7.4375 6 -12.9375 6 -20.0625 C 6 -29.945312 9.8125 -37.328125 17.4375 -42.203125 C 23.195312 -45.703125 31.265625 -48.390625 41.640625 -50.265625 L 60.015625 -53.453125 C 60.265625 -62.328125 59.515625 -68.832031 57.765625 -72.96875 C 55.265625 -78.84375 50.953125 -81.78125 44.828125 -81.78125 C 34.203125 -81.78125 28.828125 -78.21875 28.703125 -71.09375 C 28.703125 -69.832031 29.421875 -68.359375 30.859375 -66.671875 C 32.296875 -64.984375 33.015625 -64.078125 33.015625 -63.953125 C 33.140625 -62.078125 32.234375 -60.515625 30.296875 -59.265625 C 28.359375 -58.015625 26.578125 -57.578125 24.953125 -57.953125 C 18.691406 -57.953125 15.625 -61.421875 15.75 -68.359375 C 15.875 -75.304688 20.191406 -80.53125 28.703125 -84.03125 C 33.953125 -86.03125 39.515625 -87.03125 45.390625 -87.03125 C 55.265625 -87.03125 62.640625 -84.28125 67.515625 -78.78125 C 72.398438 -72.769531 74.84375 -63.265625 74.84375 -50.265625 L 74.84375 -9.375 C 74.84375 -8.125 75.28125 -7.125 76.15625 -6.375 C 77.03125 -5.625 78.03125 -5.25 79.15625 -5.25 Z M 60.015625 -22.875 L 60.015625 -47.265625 C 49.140625 -45.890625 40.203125 -43.828125 33.203125 -41.078125 C 29.953125 -39.828125 27.257812 -37.515625 25.125 -34.140625 C 23 -30.765625 21.9375 -27.070312 21.9375 -23.0625 C 21.9375 -19.0625 23.34375 -15.6875 26.15625 -12.9375 C 28.976562 -10.1875 32.359375 -8.71875 36.296875 -8.53125 C 40.234375 -8.34375 44.421875 -9.65625 48.859375 -12.46875 C 53.296875 -15.28125 57.015625 -18.75 60.015625 -22.875 Z M 60.015625 -22.875 "/></g></g></g><g fill="#0b0b0b" fill-opacity="1"><g transform="translate(502.83049, 177.152432)"><g><path d="M 20.0625 -9.375 L 20.0625 -74.09375 C 19.9375 -78.34375 17.8125 -80.46875 13.6875 -80.46875 L 5.0625 -80.46875 L 5.0625 -85.71875 L 35.828125 -85.71875 L 35.828125 -68.453125 C 37.203125 -71.835938 39.765625 -75.46875 43.515625 -79.34375 C 49.140625 -84.96875 55.078125 -87.78125 61.328125 -87.78125 C 65.078125 -87.78125 68.078125 -86.53125 70.328125 -84.03125 C 72.585938 -81.53125 73.71875 -78.53125 73.71875 -75.03125 C 73.71875 -68.144531 70.585938 -64.390625 64.328125 -63.765625 C 61.828125 -69.273438 57.703125 -72.03125 51.953125 -72.03125 C 47.828125 -72.03125 44.078125 -69.960938 40.703125 -65.828125 C 37.328125 -61.703125 35.640625 -57.015625 35.640625 -51.765625 L 35.640625 -9.375 C 36.015625 -6.5 37.453125 -5.0625 39.953125 -5.0625 L 50.828125 -5.0625 L 50.828125 0 L 5.25 0 L 5.25 -5.0625 L 15.75 -5.0625 C 18 -5.0625 19.4375 -6.5 20.0625 -9.375 Z M 20.0625 -9.375 "/></g></g></g><g fill="#0b0b0b" fill-opacity="1"><g transform="translate(561.3454, 177.152432)"><g><path d="M 20.8125 -47.640625 C 20.8125 -34.140625 24.125 -24.070312 30.75 -17.4375 C 37.382812 -10.8125 45.390625 -7.5 54.765625 -7.5 C 61.140625 -7.5 67.394531 -9.25 73.53125 -12.75 L 75.40625 -10.125 C 67.894531 -2.25 58.296875 1.6875 46.609375 1.6875 C 34.921875 1.6875 25.132812 -1.875 17.25 -9 C 9 -16.875 4.875 -27.21875 4.875 -40.03125 C 4.875 -52.851562 9.5 -64.082031 18.75 -73.71875 C 28.382812 -83.09375 39.890625 -87.53125 53.265625 -87.03125 C 61.015625 -86.53125 66.640625 -84.625 70.140625 -81.3125 C 73.648438 -78 75.3125 -74.617188 75.125 -71.171875 C 74.9375 -67.734375 73.773438 -65.140625 71.640625 -63.390625 C 69.515625 -61.640625 67.265625 -60.765625 64.890625 -60.765625 C 62.515625 -60.765625 60.328125 -61.296875 58.328125 -62.359375 C 56.328125 -63.421875 55.515625 -64.640625 55.890625 -66.015625 C 56.265625 -67.390625 57.453125 -68.578125 59.453125 -69.578125 C 61.703125 -70.960938 62.640625 -72.40625 62.265625 -73.90625 C 61.890625 -78.15625 57.578125 -80.28125 49.328125 -80.28125 C 43.703125 -80.28125 37.953125 -77.84375 32.078125 -72.96875 C 24.566406 -66.832031 20.8125 -58.390625 20.8125 -47.640625 Z M 20.8125 -47.640625 "/></g></g></g><g fill="#0b0b0b" fill-opacity="1"><g transform="translate(624.549076, 177.152432)"><g><path d="M 90.03125 -5.25 L 90.03125 0 L 60.015625 0 L 60.015625 -15.375 C 48.890625 -3.625 38.390625 2.25 28.515625 2.25 C 21.878906 2.25 16.5625 0.3125 12.5625 -3.5625 C 8.1875 -7.4375 6 -12.9375 6 -20.0625 C 6 -29.945312 9.8125 -37.328125 17.4375 -42.203125 C 23.195312 -45.703125 31.265625 -48.390625 41.640625 -50.265625 L 60.015625 -53.453125 C 60.265625 -62.328125 59.515625 -68.832031 57.765625 -72.96875 C 55.265625 -78.84375 50.953125 -81.78125 44.828125 -81.78125 C 34.203125 -81.78125 28.828125 -78.21875 28.703125 -71.09375 C 28.703125 -69.832031 29.421875 -68.359375 30.859375 -66.671875 C 32.296875 -64.984375 33.015625 -64.078125 33.015625 -63.953125 C 33.140625 -62.078125 32.234375 -60.515625 30.296875 -59.265625 C 28.359375 -58.015625 26.578125 -57.578125 24.953125 -57.953125 C 18.691406 -57.953125 15.625 -61.421875 15.75 -68.359375 C 15.875 -75.304688 20.191406 -80.53125 28.703125 -84.03125 C 33.953125 -86.03125 39.515625 -87.03125 45.390625 -87.03125 C 55.265625 -87.03125 62.640625 -84.28125 67.515625 -78.78125 C 72.398438 -72.769531 74.84375 -63.265625 74.84375 -50.265625 L 74.84375 -9.375 C 74.84375 -8.125 75.28125 -7.125 76.15625 -6.375 C 77.03125 -5.625 78.03125 -5.25 79.15625 -5.25 Z M 60.015625 -22.875 L 60.015625 -47.265625 C 49.140625 -45.890625 40.203125 -43.828125 33.203125 -41.078125 C 29.953125 -39.828125 27.257812 -37.515625 25.125 -34.140625 C 23 -30.765625 21.9375 -27.070312 21.9375 -23.0625 C 21.9375 -19.0625 23.34375 -15.6875 26.15625 -12.9375 C 28.976562 -10.1875 32.359375 -8.71875 36.296875 -8.53125 C 40.234375 -8.34375 44.421875 -9.65625 48.859375 -12.46875 C 53.296875 -15.28125 57.015625 -18.75 60.015625 -22.875 Z M 60.015625 -22.875 "/></g></g></g><g fill="#0b0b0b" fill-opacity="1"><g transform="translate(700.506208, 177.152432)"><g/></g></g><g fill="#0b0b0b" fill-opacity="1"><g transform="translate(748.705796, 177.152432)"><g><path d="M 107.28125 -5.0625 L 107.28125 0 L 61.515625 0 L 61.515625 -5.0625 L 72.59375 -5.0625 C 74.96875 -5.0625 76.34375 -6.5 76.71875 -9.375 L 76.71875 -53.828125 C 76.71875 -61.078125 74.835938 -66.734375 71.078125 -70.796875 C 67.328125 -74.867188 62.515625 -76.90625 56.640625 -76.90625 C 50.765625 -76.90625 45.328125 -74.96875 40.328125 -71.09375 C 35.578125 -67.082031 33.203125 -63.328125 33.203125 -59.828125 L 33.203125 -9.375 C 33.578125 -6.5 35.015625 -5.0625 37.515625 -5.0625 L 48.390625 -5.0625 L 48.390625 0 L 2.625 0 L 2.625 -5.0625 L 13.5 -5.0625 C 16 -5.0625 17.4375 -6.5 17.8125 -9.375 L 17.8125 -74.28125 C 17.6875 -78.53125 15.5625 -80.65625 11.4375 -80.65625 L 2.625 -80.65625 L 2.625 -85.71875 L 33.390625 -85.71875 L 33.390625 -80.65625 C 33.265625 -79.15625 33.203125 -77.40625 33.203125 -75.40625 L 33.203125 -71.65625 C 34.203125 -74.03125 36.828125 -77.03125 41.078125 -80.65625 C 47.453125 -85.65625 54.390625 -88.15625 61.890625 -88.15625 C 82.023438 -88.15625 92.09375 -77.460938 92.09375 -56.078125 L 92.09375 -9.375 C 92.46875 -6.5 93.90625 -5.0625 96.40625 -5.0625 Z M 107.28125 -5.0625 "/></g></g></g><g fill="#0b0b0b" fill-opacity="1"><g transform="translate(842.480249, 177.152432)"><g><path d="M 82.90625 -75.40625 C 90.90625 -67.519531 94.90625 -57.109375 94.90625 -44.171875 C 94.90625 -31.234375 90.460938 -20.382812 81.578125 -11.625 C 72.703125 -2.875 61.078125 1.625 46.703125 1.875 C 35.328125 2 25.695312 -1.9375 17.8125 -9.9375 C 10.3125 -18.0625 6.5625 -28.78125 6.5625 -42.09375 C 6.5625 -55.414062 10.75 -66.328125 19.125 -74.828125 C 27.507812 -83.335938 38.890625 -87.59375 53.265625 -87.59375 C 65.148438 -87.59375 75.03125 -83.53125 82.90625 -75.40625 Z M 54.203125 -4.125 C 62.078125 -4.125 67.984375 -7.4375 71.921875 -14.0625 C 75.867188 -20.695312 77.84375 -29.296875 77.84375 -39.859375 C 77.84375 -50.421875 75.148438 -60.015625 69.765625 -68.640625 C 64.265625 -77.148438 57.453125 -81.40625 49.328125 -81.40625 C 32.203125 -81.40625 23.640625 -70.460938 23.640625 -48.578125 C 23.640625 -36.953125 25.765625 -27.132812 30.015625 -19.125 C 35.390625 -9.125 43.453125 -4.125 54.203125 -4.125 Z M 54.203125 -4.125 "/></g></g></g><g fill="#0b0b0b" fill-opacity="1"><g transform="translate(925.189276, 177.152432)"><g/></g></g><g fill="#4a584e" fill-opacity="1"><g transform="translate(973.396102, 177.152432)"><g><path d="M 24.203125 -101.46875 L 33.765625 -101.46875 L 33.765625 -78.40625 L 57.203125 -78.78125 L 56.828125 -70.140625 L 33.765625 -70.140625 L 33.765625 -21.75 C 33.765625 -13.375 37.015625 -9.1875 43.515625 -9.1875 C 46.390625 -9.1875 49.953125 -10.3125 54.203125 -12.5625 L 55.515625 -10.5 C 51.265625 -1.875 44.765625 2.4375 36.015625 2.4375 C 24.003906 2.1875 18 -4.375 18 -17.25 L 18 -70.140625 L 3.9375 -69.765625 L 3.9375 -74.84375 C 4.8125 -75.09375 6 -75.40625 7.5 -75.78125 C 13.25 -77.15625 17.4375 -79.875 20.0625 -83.9375 C 22.695312 -88 24.078125 -93.84375 24.203125 -101.46875 Z M 24.203125 -101.46875 "/></g></g></g><g fill="#4a584e" fill-opacity="1"><g transform="translate(1015.406521, 177.152432)"><g><path d="M 82.90625 -75.40625 C 90.90625 -67.519531 94.90625 -57.109375 94.90625 -44.171875 C 94.90625 -31.234375 90.460938 -20.382812 81.578125 -11.625 C 72.703125 -2.875 61.078125 1.625 46.703125 1.875 C 35.328125 2 25.695312 -1.9375 17.8125 -9.9375 C 10.3125 -18.0625 6.5625 -28.78125 6.5625 -42.09375 C 6.5625 -55.414062 10.75 -66.328125 19.125 -74.828125 C 27.507812 -83.335938 38.890625 -87.59375 53.265625 -87.59375 C 65.148438 -87.59375 75.03125 -83.53125 82.90625 -75.40625 Z M 54.203125 -4.125 C 62.078125 -4.125 67.984375 -7.4375 71.921875 -14.0625 C 75.867188 -20.695312 77.84375 -29.296875 77.84375 -39.859375 C 77.84375 -50.421875 75.148438 -60.015625 69.765625 -68.640625 C 64.265625 -77.148438 57.453125 -81.40625 49.328125 -81.40625 C 32.203125 -81.40625 23.640625 -70.460938 23.640625 -48.578125 C 23.640625 -36.953125 25.765625 -27.132812 30.015625 -19.125 C 35.390625 -9.125 43.453125 -4.125 54.203125 -4.125 Z M 54.203125 -4.125 "/></g></g></g><g fill="#4a584e" fill-opacity="1"><g transform="translate(1098.115503, 177.152432)"><g><path d="M 102.40625 -50.078125 C 102.40625 -36.078125 97.5 -23.632812 87.6875 -12.75 C 77.875 -1.875 66.273438 3.25 52.890625 2.625 C 43.765625 2.5 37.140625 0.9375 33.015625 -2.0625 L 32.453125 41.078125 C 33.078125 43.828125 34.515625 45.203125 36.765625 45.203125 L 47.828125 45.203125 L 47.828125 50.453125 L 1.5 50.453125 L 1.5 45.203125 L 12.5625 45.203125 C 14.8125 45.203125 16.3125 43.828125 17.0625 41.078125 L 17.0625 -74.09375 C 16.6875 -78.34375 14.5 -80.46875 10.5 -80.46875 L 1.6875 -80.46875 L 1.6875 -85.71875 L 32.640625 -85.71875 C 32.640625 -78.84375 32.765625 -72.335938 33.015625 -66.203125 C 35.015625 -70.335938 37.578125 -73.90625 40.703125 -76.90625 C 48.078125 -83.90625 57.453125 -87.59375 68.828125 -87.96875 C 79.210938 -87.96875 87.40625 -84.367188 93.40625 -77.171875 C 99.40625 -69.984375 102.40625 -60.953125 102.40625 -50.078125 Z M 78.03125 -16.5 C 83.53125 -23.132812 86.28125 -31.609375 86.28125 -41.921875 C 86.28125 -52.234375 84.28125 -60.203125 80.28125 -65.828125 C 75.90625 -72.460938 69.335938 -75.78125 60.578125 -75.78125 C 51.828125 -75.78125 42.640625 -69.648438 33.015625 -57.390625 L 33.015625 -17.4375 C 39.515625 -9.9375 48.140625 -6.375 58.890625 -6.75 C 66.773438 -7 73.15625 -10.25 78.03125 -16.5 Z M 78.03125 -16.5 "/></g></g></g><g fill="#4a584e" fill-opacity="1"><g transform="translate(1190.952223, 177.152432)"><g><path d="M 82.90625 -75.40625 C 90.90625 -67.519531 94.90625 -57.109375 94.90625 -44.171875 C 94.90625 -31.234375 90.460938 -20.382812 81.578125 -11.625 C 72.703125 -2.875 61.078125 1.625 46.703125 1.875 C 35.328125 2 25.695312 -1.9375 17.8125 -9.9375 C 10.3125 -18.0625 6.5625 -28.78125 6.5625 -42.09375 C 6.5625 -55.414062 10.75 -66.328125 19.125 -74.828125 C 27.507812 -83.335938 38.890625 -87.59375 53.265625 -87.59375 C 65.148438 -87.59375 75.03125 -83.53125 82.90625 -75.40625 Z M 54.203125 -4.125 C 62.078125 -4.125 67.984375 -7.4375 71.921875 -14.0625 C 75.867188 -20.695312 77.84375 -29.296875 77.84375 -39.859375 C 77.84375 -50.421875 75.148438 -60.015625 69.765625 -68.640625 C 64.265625 -77.148438 57.453125 -81.40625 49.328125 -81.40625 C 32.203125 -81.40625 23.640625 -70.460938 23.640625 -48.578125 C 23.640625 -36.953125 25.765625 -27.132812 30.015625 -19.125 C 35.390625 -9.125 43.453125 -4.125 54.203125 -4.125 Z M 54.203125 -4.125 "/></g></g></g><g fill="#4a584e" fill-opacity="1"><g transform="translate(0.199899, 328.617917)"><g><path d="M 110.28125 -5.0625 L 110.28125 0 L 79.34375 0 L 80.09375 -16.5 C 77.84375 -11.875 74.085938 -7.8125 68.828125 -4.3125 C 62.703125 0.1875 55.640625 2.4375 47.640625 2.4375 C 35.140625 2.4375 25.570312 -1.84375 18.9375 -10.40625 C 12.3125 -18.96875 9 -30.03125 9 -43.59375 C 9 -57.164062 13.625 -68.390625 22.875 -77.265625 C 32.132812 -86.148438 43.515625 -90.34375 57.015625 -89.84375 C 62.265625 -89.21875 67.144531 -87.96875 71.65625 -86.09375 C 75.65625 -83.96875 78.28125 -81.78125 79.53125 -79.53125 L 79.53125 -120.046875 C 79.40625 -124.421875 77.15625 -126.609375 72.78125 -126.609375 L 63.953125 -126.609375 L 63.953125 -131.859375 L 94.90625 -131.859375 L 94.90625 -9.5625 C 95.15625 -6.5625 96.53125 -5.0625 99.03125 -5.0625 Z M 79.53125 -43.328125 L 79.53125 -67.140625 C 78.15625 -71.398438 74.960938 -75.09375 69.953125 -78.21875 C 64.953125 -81.34375 59.171875 -82.90625 52.609375 -82.90625 C 46.046875 -82.90625 40.265625 -80.28125 35.265625 -75.03125 C 29.390625 -68.644531 26.015625 -59.203125 25.140625 -46.703125 C 24.390625 -37.078125 26.703125 -28.507812 32.078125 -21 C 37.828125 -12.625 45.203125 -8.4375 54.203125 -8.4375 C 63.203125 -8.4375 69.894531 -12.25 74.28125 -19.875 C 77.78125 -26.007812 79.53125 -33.828125 79.53125 -43.328125 Z M 79.53125 -43.328125 "/></g></g></g><g fill="#4a584e" fill-opacity="1"><g transform="translate(95.849886, 328.617917)"><g><path d="M 82.90625 -75.40625 C 90.90625 -67.519531 94.90625 -57.109375 94.90625 -44.171875 C 94.90625 -31.234375 90.460938 -20.382812 81.578125 -11.625 C 72.703125 -2.875 61.078125 1.625 46.703125 1.875 C 35.328125 2 25.695312 -1.9375 17.8125 -9.9375 C 10.3125 -18.0625 6.5625 -28.78125 6.5625 -42.09375 C 6.5625 -55.414062 10.75 -66.328125 19.125 -74.828125 C 27.507812 -83.335938 38.890625 -87.59375 53.265625 -87.59375 C 65.148438 -87.59375 75.03125 -83.53125 82.90625 -75.40625 Z M 54.203125 -4.125 C 62.078125 -4.125 67.984375 -7.4375 71.921875 -14.0625 C 75.867188 -20.695312 77.84375 -29.296875 77.84375 -39.859375 C 77.84375 -50.421875 75.148438 -60.015625 69.765625 -68.640625 C 64.265625 -77.148438 57.453125 -81.40625 49.328125 -81.40625 C 32.203125 -81.40625 23.640625 -70.460938 23.640625 -48.578125 C 23.640625 -36.953125 25.765625 -27.132812 30.015625 -19.125 C 35.390625 -9.125 43.453125 -4.125 54.203125 -4.125 Z M 54.203125 -4.125 "/></g></g></g><g fill="#4a584e" fill-opacity="1"><g transform="translate(178.558867, 328.617917)"><g/></g></g><g fill="#4a584e" fill-opacity="1"><g transform="translate(226.758455, 328.617917)"><g><path d="M 159.609375 -5.0625 L 159.609375 0 L 114.03125 0 L 114.03125 -5.0625 L 125.109375 -5.0625 C 127.484375 -5.0625 129.046875 -6.5 129.796875 -9.375 L 129.796875 -53.640625 C 129.796875 -60.265625 128.296875 -65.734375 125.296875 -70.046875 C 122.296875 -74.367188 118.101562 -76.53125 112.71875 -76.53125 C 107.34375 -76.53125 102.21875 -74.460938 97.34375 -70.328125 C 92.46875 -66.453125 90.03125 -62.828125 90.03125 -59.453125 L 89.84375 -9.375 C 90.46875 -6.5 91.90625 -5.0625 94.15625 -5.0625 L 105.03125 -5.0625 L 105.03125 0 L 59.640625 0 L 59.640625 -5.0625 L 70.328125 -5.0625 C 72.710938 -5.0625 74.21875 -6.5 74.84375 -9.375 L 74.84375 -53.640625 C 74.84375 -60.015625 73.40625 -65.328125 70.53125 -69.578125 C 67.644531 -74.210938 63.421875 -76.53125 57.859375 -76.53125 C 52.296875 -76.53125 47.171875 -74.617188 42.484375 -70.796875 C 37.796875 -66.984375 35.453125 -63.203125 35.453125 -59.453125 L 35.453125 -9.375 C 35.828125 -6.5 37.203125 -5.0625 39.578125 -5.0625 L 50.453125 -5.0625 L 50.453125 0 L 4.875 0 L 4.875 -5.0625 L 15.75 -5.0625 C 18.125 -5.0625 19.5 -6.5 19.875 -9.375 L 19.875 -74.09375 C 19.75 -78.34375 17.5625 -80.46875 13.3125 -80.46875 L 4.6875 -80.46875 L 4.6875 -85.71875 L 35.453125 -85.71875 L 35.453125 -71.46875 C 37.953125 -75.96875 41.265625 -79.53125 45.390625 -82.15625 C 50.890625 -85.90625 57.015625 -87.78125 63.765625 -87.78125 C 75.648438 -87.78125 84.03125 -82.09375 88.90625 -70.71875 C 96.28125 -82.09375 106.222656 -87.78125 118.734375 -87.78125 C 126.359375 -87.78125 132.640625 -85.125 137.578125 -79.8125 C 142.515625 -74.5 144.984375 -67.335938 144.984375 -58.328125 L 144.796875 -9.375 C 145.046875 -6.5 146.359375 -5.0625 148.734375 -5.0625 Z M 159.609375 -5.0625 "/></g></g></g><g fill="#4a584e" fill-opacity="1"><g transform="translate(374.172508, 328.617917)"><g><path d="M 80.84375 -43.515625 L 21.1875 -43.515625 C 21.1875 -32.515625 23.941406 -23.945312 29.453125 -17.8125 C 35.078125 -11.1875 43.328125 -7.875 54.203125 -7.875 C 59.953125 -7.875 67.394531 -10.75 76.53125 -16.5 L 78.96875 -14.625 C 70.082031 -3.75 59.078125 1.6875 45.953125 1.6875 C 32.828125 1.6875 22.507812 -2.25 15 -10.125 C 8 -17.75 4.5 -27.875 4.5 -40.5 C 4.5 -53.132812 8.28125 -64.046875 15.84375 -73.234375 C 23.414062 -82.429688 33.578125 -87.03125 46.328125 -87.03125 C 56.828125 -87.03125 65.265625 -83.492188 71.640625 -76.421875 C 78.023438 -69.359375 81.21875 -60.703125 81.21875 -50.453125 C 81.21875 -49.078125 81.09375 -46.765625 80.84375 -43.515625 Z M 64.703125 -50.265625 C 64.703125 -59.265625 63.046875 -66.640625 59.734375 -72.390625 C 56.421875 -78.148438 51.453125 -81.03125 44.828125 -81.03125 C 38.203125 -81.03125 32.632812 -78.335938 28.125 -72.953125 C 23.625 -67.578125 21.375 -60.140625 21.375 -50.640625 C 44.757812 -50.015625 59.203125 -49.890625 64.703125 -50.265625 Z M 64.703125 -50.265625 "/></g></g></g><g fill="#4a584e" fill-opacity="1"><g transform="translate(443.565386, 328.617917)"><g><path d="M 20.0625 -9.375 L 20.0625 -74.09375 C 19.9375 -78.34375 17.8125 -80.46875 13.6875 -80.46875 L 5.0625 -80.46875 L 5.0625 -85.71875 L 35.828125 -85.71875 L 35.828125 -68.453125 C 37.203125 -71.835938 39.765625 -75.46875 43.515625 -79.34375 C 49.140625 -84.96875 55.078125 -87.78125 61.328125 -87.78125 C 65.078125 -87.78125 68.078125 -86.53125 70.328125 -84.03125 C 72.585938 -81.53125 73.71875 -78.53125 73.71875 -75.03125 C 73.71875 -68.144531 70.585938 -64.390625 64.328125 -63.765625 C 61.828125 -69.273438 57.703125 -72.03125 51.953125 -72.03125 C 47.828125 -72.03125 44.078125 -69.960938 40.703125 -65.828125 C 37.328125 -61.703125 35.640625 -57.015625 35.640625 -51.765625 L 35.640625 -9.375 C 36.015625 -6.5 37.453125 -5.0625 39.953125 -5.0625 L 50.828125 -5.0625 L 50.828125 0 L 5.25 0 L 5.25 -5.0625 L 15.75 -5.0625 C 18 -5.0625 19.4375 -6.5 20.0625 -9.375 Z M 20.0625 -9.375 "/></g></g></g><g fill="#4a584e" fill-opacity="1"><g transform="translate(502.08025, 328.617917)"><g><path d="M 20.8125 -47.640625 C 20.8125 -34.140625 24.125 -24.070312 30.75 -17.4375 C 37.382812 -10.8125 45.390625 -7.5 54.765625 -7.5 C 61.140625 -7.5 67.394531 -9.25 73.53125 -12.75 L 75.40625 -10.125 C 67.894531 -2.25 58.296875 1.6875 46.609375 1.6875 C 34.921875 1.6875 25.132812 -1.875 17.25 -9 C 9 -16.875 4.875 -27.21875 4.875 -40.03125 C 4.875 -52.851562 9.5 -64.082031 18.75 -73.71875 C 28.382812 -83.09375 39.890625 -87.53125 53.265625 -87.03125 C 61.015625 -86.53125 66.640625 -84.625 70.140625 -81.3125 C 73.648438 -78 75.3125 -74.617188 75.125 -71.171875 C 74.9375 -67.734375 73.773438 -65.140625 71.640625 -63.390625 C 69.515625 -61.640625 67.265625 -60.765625 64.890625 -60.765625 C 62.515625 -60.765625 60.328125 -61.296875 58.328125 -62.359375 C 56.328125 -63.421875 55.515625 -64.640625 55.890625 -66.015625 C 56.265625 -67.390625 57.453125 -68.578125 59.453125 -69.578125 C 61.703125 -70.960938 62.640625 -72.40625 62.265625 -73.90625 C 61.890625 -78.15625 57.578125 -80.28125 49.328125 -80.28125 C 43.703125 -80.28125 37.953125 -77.84375 32.078125 -72.96875 C 24.566406 -66.832031 20.8125 -58.390625 20.8125 -47.640625 Z M 20.8125 -47.640625 "/></g></g></g><g fill="#4a584e" fill-opacity="1"><g transform="translate(565.283926, 328.617917)"><g><path d="M 90.03125 -5.25 L 90.03125 0 L 60.015625 0 L 60.015625 -15.375 C 48.890625 -3.625 38.390625 2.25 28.515625 2.25 C 21.878906 2.25 16.5625 0.3125 12.5625 -3.5625 C 8.1875 -7.4375 6 -12.9375 6 -20.0625 C 6 -29.945312 9.8125 -37.328125 17.4375 -42.203125 C 23.195312 -45.703125 31.265625 -48.390625 41.640625 -50.265625 L 60.015625 -53.453125 C 60.265625 -62.328125 59.515625 -68.832031 57.765625 -72.96875 C 55.265625 -78.84375 50.953125 -81.78125 44.828125 -81.78125 C 34.203125 -81.78125 28.828125 -78.21875 28.703125 -71.09375 C 28.703125 -69.832031 29.421875 -68.359375 30.859375 -66.671875 C 32.296875 -64.984375 33.015625 -64.078125 33.015625 -63.953125 C 33.140625 -62.078125 32.234375 -60.515625 30.296875 -59.265625 C 28.359375 -58.015625 26.578125 -57.578125 24.953125 -57.953125 C 18.691406 -57.953125 15.625 -61.421875 15.75 -68.359375 C 15.875 -75.304688 20.191406 -80.53125 28.703125 -84.03125 C 33.953125 -86.03125 39.515625 -87.03125 45.390625 -87.03125 C 55.265625 -87.03125 62.640625 -84.28125 67.515625 -78.78125 C 72.398438 -72.769531 74.84375 -63.265625 74.84375 -50.265625 L 74.84375 -9.375 C 74.84375 -8.125 75.28125 -7.125 76.15625 -6.375 C 77.03125 -5.625 78.03125 -5.25 79.15625 -5.25 Z M 60.015625 -22.875 L 60.015625 -47.265625 C 49.140625 -45.890625 40.203125 -43.828125 33.203125 -41.078125 C 29.953125 -39.828125 27.257812 -37.515625 25.125 -34.140625 C 23 -30.765625 21.9375 -27.070312 21.9375 -23.0625 C 21.9375 -19.0625 23.34375 -15.6875 26.15625 -12.9375 C 28.976562 -10.1875 32.359375 -8.71875 36.296875 -8.53125 C 40.234375 -8.34375 44.421875 -9.65625 48.859375 -12.46875 C 53.296875 -15.28125 57.015625 -18.75 60.015625 -22.875 Z M 60.015625 -22.875 "/></g></g></g><g fill="#4a584e" fill-opacity="1"><g transform="translate(641.241104, 328.617917)"><g><path d="M 110.28125 -5.0625 L 110.28125 0 L 79.34375 0 L 80.09375 -16.5 C 77.84375 -11.875 74.085938 -7.8125 68.828125 -4.3125 C 62.703125 0.1875 55.640625 2.4375 47.640625 2.4375 C 35.140625 2.4375 25.570312 -1.84375 18.9375 -10.40625 C 12.3125 -18.96875 9 -30.03125 9 -43.59375 C 9 -57.164062 13.625 -68.390625 22.875 -77.265625 C 32.132812 -86.148438 43.515625 -90.34375 57.015625 -89.84375 C 62.265625 -89.21875 67.144531 -87.96875 71.65625 -86.09375 C 75.65625 -83.96875 78.28125 -81.78125 79.53125 -79.53125 L 79.53125 -120.046875 C 79.40625 -124.421875 77.15625 -126.609375 72.78125 -126.609375 L 63.953125 -126.609375 L 63.953125 -131.859375 L 94.90625 -131.859375 L 94.90625 -9.5625 C 95.15625 -6.5625 96.53125 -5.0625 99.03125 -5.0625 Z M 79.53125 -43.328125 L 79.53125 -67.140625 C 78.15625 -71.398438 74.960938 -75.09375 69.953125 -78.21875 C 64.953125 -81.34375 59.171875 -82.90625 52.609375 -82.90625 C 46.046875 -82.90625 40.265625 -80.28125 35.265625 -75.03125 C 29.390625 -68.644531 26.015625 -59.203125 25.140625 -46.703125 C 24.390625 -37.078125 26.703125 -28.507812 32.078125 -21 C 37.828125 -12.625 45.203125 -8.4375 54.203125 -8.4375 C 63.203125 -8.4375 69.894531 -12.25 74.28125 -19.875 C 77.78125 -26.007812 79.53125 -33.828125 79.53125 -43.328125 Z M 79.53125 -43.328125 "/></g></g></g><g fill="#4a584e" fill-opacity="1"><g transform="translate(736.891091, 328.617917)"><g><path d="M 82.90625 -75.40625 C 90.90625 -67.519531 94.90625 -57.109375 94.90625 -44.171875 C 94.90625 -31.234375 90.460938 -20.382812 81.578125 -11.625 C 72.703125 -2.875 61.078125 1.625 46.703125 1.875 C 35.328125 2 25.695312 -1.9375 17.8125 -9.9375 C 10.3125 -18.0625 6.5625 -28.78125 6.5625 -42.09375 C 6.5625 -55.414062 10.75 -66.328125 19.125 -74.828125 C 27.507812 -83.335938 38.890625 -87.59375 53.265625 -87.59375 C 65.148438 -87.59375 75.03125 -83.53125 82.90625 -75.40625 Z M 54.203125 -4.125 C 62.078125 -4.125 67.984375 -7.4375 71.921875 -14.0625 C 75.867188 -20.695312 77.84375 -29.296875 77.84375 -39.859375 C 77.84375 -50.421875 75.148438 -60.015625 69.765625 -68.640625 C 64.265625 -77.148438 57.453125 -81.40625 49.328125 -81.40625 C 32.203125 -81.40625 23.640625 -70.460938 23.640625 -48.578125 C 23.640625 -36.953125 25.765625 -27.132812 30.015625 -19.125 C 35.390625 -9.125 43.453125 -4.125 54.203125 -4.125 Z M 54.203125 -4.125 "/></g></g></g><g fill="#4a584e" fill-opacity="1"><g transform="translate(819.600027, 328.617917)"><g/></g></g><g fill="#0b0b0b" fill-opacity="1"><g transform="translate(867.810787, 328.617917)"><g><path d="M 20.8125 -47.640625 C 20.8125 -34.140625 24.125 -24.070312 30.75 -17.4375 C 37.382812 -10.8125 45.390625 -7.5 54.765625 -7.5 C 61.140625 -7.5 67.394531 -9.25 73.53125 -12.75 L 75.40625 -10.125 C 67.894531 -2.25 58.296875 1.6875 46.609375 1.6875 C 34.921875 1.6875 25.132812 -1.875 17.25 -9 C 9 -16.875 4.875 -27.21875 4.875 -40.03125 C 4.875 -52.851562 9.5 -64.082031 18.75 -73.71875 C 28.382812 -83.09375 39.890625 -87.53125 53.265625 -87.03125 C 61.015625 -86.53125 66.640625 -84.625 70.140625 -81.3125 C 73.648438 -78 75.3125 -74.617188 75.125 -71.171875 C 74.9375 -67.734375 73.773438 -65.140625 71.640625 -63.390625 C 69.515625 -61.640625 67.265625 -60.765625 64.890625 -60.765625 C 62.515625 -60.765625 60.328125 -61.296875 58.328125 -62.359375 C 56.328125 -63.421875 55.515625 -64.640625 55.890625 -66.015625 C 56.265625 -67.390625 57.453125 -68.578125 59.453125 -69.578125 C 61.703125 -70.960938 62.640625 -72.40625 62.265625 -73.90625 C 61.890625 -78.15625 57.578125 -80.28125 49.328125 -80.28125 C 43.703125 -80.28125 37.953125 -77.84375 32.078125 -72.96875 C 24.566406 -66.832031 20.8125 -58.390625 20.8125 -47.640625 Z M 20.8125 -47.640625 "/></g></g></g><g fill="#0b0b0b" fill-opacity="1"><g transform="translate(931.014463, 328.617917)"><g><path d="M 82.90625 -75.40625 C 90.90625 -67.519531 94.90625 -57.109375 94.90625 -44.171875 C 94.90625 -31.234375 90.460938 -20.382812 81.578125 -11.625 C 72.703125 -2.875 61.078125 1.625 46.703125 1.875 C 35.328125 2 25.695312 -1.9375 17.8125 -9.9375 C 10.3125 -18.0625 6.5625 -28.78125 6.5625 -42.09375 C 6.5625 -55.414062 10.75 -66.328125 19.125 -74.828125 C 27.507812 -83.335938 38.890625 -87.59375 53.265625 -87.59375 C 65.148438 -87.59375 75.03125 -83.53125 82.90625 -75.40625 Z M 54.203125 -4.125 C 62.078125 -4.125 67.984375 -7.4375 71.921875 -14.0625 C 75.867188 -20.695312 77.84375 -29.296875 77.84375 -39.859375 C 77.84375 -50.421875 75.148438 -60.015625 69.765625 -68.640625 C 64.265625 -77.148438 57.453125 -81.40625 49.328125 -81.40625 C 32.203125 -81.40625 23.640625 -70.460938 23.640625 -48.578125 C 23.640625 -36.953125 25.765625 -27.132812 30.015625 -19.125 C 35.390625 -9.125 43.453125 -4.125 54.203125 -4.125 Z M 54.203125 -4.125 "/></g></g></g><g fill="#0b0b0b" fill-opacity="1"><g transform="translate(1013.723444, 328.617917)"><g><path d="M 159.609375 -5.0625 L 159.609375 0 L 114.03125 0 L 114.03125 -5.0625 L 125.109375 -5.0625 C 127.484375 -5.0625 129.046875 -6.5 129.796875 -9.375 L 129.796875 -53.640625 C 129.796875 -60.265625 128.296875 -65.734375 125.296875 -70.046875 C 122.296875 -74.367188 118.101562 -76.53125 112.71875 -76.53125 C 107.34375 -76.53125 102.21875 -74.460938 97.34375 -70.328125 C 92.46875 -66.453125 90.03125 -62.828125 90.03125 -59.453125 L 89.84375 -9.375 C 90.46875 -6.5 91.90625 -5.0625 94.15625 -5.0625 L 105.03125 -5.0625 L 105.03125 0 L 59.640625 0 L 59.640625 -5.0625 L 70.328125 -5.0625 C 72.710938 -5.0625 74.21875 -6.5 74.84375 -9.375 L 74.84375 -53.640625 C 74.84375 -60.015625 73.40625 -65.328125 70.53125 -69.578125 C 67.644531 -74.210938 63.421875 -76.53125 57.859375 -76.53125 C 52.296875 -76.53125 47.171875 -74.617188 42.484375 -70.796875 C 37.796875 -66.984375 35.453125 -63.203125 35.453125 -59.453125 L 35.453125 -9.375 C 35.828125 -6.5 37.203125 -5.0625 39.578125 -5.0625 L 50.453125 -5.0625 L 50.453125 0 L 4.875 0 L 4.875 -5.0625 L 15.75 -5.0625 C 18.125 -5.0625 19.5 -6.5 19.875 -9.375 L 19.875 -74.09375 C 19.75 -78.34375 17.5625 -80.46875 13.3125 -80.46875 L 4.6875 -80.46875 L 4.6875 -85.71875 L 35.453125 -85.71875 L 35.453125 -71.46875 C 37.953125 -75.96875 41.265625 -79.53125 45.390625 -82.15625 C 50.890625 -85.90625 57.015625 -87.78125 63.765625 -87.78125 C 75.648438 -87.78125 84.03125 -82.09375 88.90625 -70.71875 C 96.28125 -82.09375 106.222656 -87.78125 118.734375 -87.78125 C 126.359375 -87.78125 132.640625 -85.125 137.578125 -79.8125 C 142.515625 -74.5 144.984375 -67.335938 144.984375 -58.328125 L 144.796875 -9.375 C 145.046875 -6.5 146.359375 -5.0625 148.734375 -5.0625 Z M 159.609375 -5.0625 "/></g></g></g><g fill="#0b0b0b" fill-opacity="1"><g transform="translate(1161.137497, 328.617917)"><g/></g></g><g fill="#0b0b0b" fill-opacity="1"><g transform="translate(1209.337085, 328.617917)"><g><path d="M 82.90625 -75.40625 C 90.90625 -67.519531 94.90625 -57.109375 94.90625 -44.171875 C 94.90625 -31.234375 90.460938 -20.382812 81.578125 -11.625 C 72.703125 -2.875 61.078125 1.625 46.703125 1.875 C 35.328125 2 25.695312 -1.9375 17.8125 -9.9375 C 10.3125 -18.0625 6.5625 -28.78125 6.5625 -42.09375 C 6.5625 -55.414062 10.75 -66.328125 19.125 -74.828125 C 27.507812 -83.335938 38.890625 -87.59375 53.265625 -87.59375 C 65.148438 -87.59375 75.03125 -83.53125 82.90625 -75.40625 Z M 54.203125 -4.125 C 62.078125 -4.125 67.984375 -7.4375 71.921875 -14.0625 C 75.867188 -20.695312 77.84375 -29.296875 77.84375 -39.859375 C 77.84375 -50.421875 75.148438 -60.015625 69.765625 -68.640625 C 64.265625 -77.148438 57.453125 -81.40625 49.328125 -81.40625 C 32.203125 -81.40625 23.640625 -70.460938 23.640625 -48.578125 C 23.640625 -36.953125 25.765625 -27.132812 30.015625 -19.125 C 35.390625 -9.125 43.453125 -4.125 54.203125 -4.125 Z M 54.203125 -4.125 "/></g></g></g><g fill="#0b0b0b" fill-opacity="1"><g transform="translate(0.199899, 480.083401)"><g><path d="M 159.609375 -5.0625 L 159.609375 0 L 114.03125 0 L 114.03125 -5.0625 L 125.109375 -5.0625 C 127.484375 -5.0625 129.046875 -6.5 129.796875 -9.375 L 129.796875 -53.640625 C 129.796875 -60.265625 128.296875 -65.734375 125.296875 -70.046875 C 122.296875 -74.367188 118.101562 -76.53125 112.71875 -76.53125 C 107.34375 -76.53125 102.21875 -74.460938 97.34375 -70.328125 C 92.46875 -66.453125 90.03125 -62.828125 90.03125 -59.453125 L 89.84375 -9.375 C 90.46875 -6.5 91.90625 -5.0625 94.15625 -5.0625 L 105.03125 -5.0625 L 105.03125 0 L 59.640625 0 L 59.640625 -5.0625 L 70.328125 -5.0625 C 72.710938 -5.0625 74.21875 -6.5 74.84375 -9.375 L 74.84375 -53.640625 C 74.84375 -60.015625 73.40625 -65.328125 70.53125 -69.578125 C 67.644531 -74.210938 63.421875 -76.53125 57.859375 -76.53125 C 52.296875 -76.53125 47.171875 -74.617188 42.484375 -70.796875 C 37.796875 -66.984375 35.453125 -63.203125 35.453125 -59.453125 L 35.453125 -9.375 C 35.828125 -6.5 37.203125 -5.0625 39.578125 -5.0625 L 50.453125 -5.0625 L 50.453125 0 L 4.875 0 L 4.875 -5.0625 L 15.75 -5.0625 C 18.125 -5.0625 19.5 -6.5 19.875 -9.375 L 19.875 -74.09375 C 19.75 -78.34375 17.5625 -80.46875 13.3125 -80.46875 L 4.6875 -80.46875 L 4.6875 -85.71875 L 35.453125 -85.71875 L 35.453125 -71.46875 C 37.953125 -75.96875 41.265625 -79.53125 45.390625 -82.15625 C 50.890625 -85.90625 57.015625 -87.78125 63.765625 -87.78125 C 75.648438 -87.78125 84.03125 -82.09375 88.90625 -70.71875 C 96.28125 -82.09375 106.222656 -87.78125 118.734375 -87.78125 C 126.359375 -87.78125 132.640625 -85.125 137.578125 -79.8125 C 142.515625 -74.5 144.984375 -67.335938 144.984375 -58.328125 L 144.796875 -9.375 C 145.046875 -6.5 146.359375 -5.0625 148.734375 -5.0625 Z M 159.609375 -5.0625 "/></g></g></g><g fill="#0b0b0b" fill-opacity="1"><g transform="translate(147.613951, 480.083401)"><g><path d="M 90.03125 -5.25 L 90.03125 0 L 60.015625 0 L 60.015625 -15.375 C 48.890625 -3.625 38.390625 2.25 28.515625 2.25 C 21.878906 2.25 16.5625 0.3125 12.5625 -3.5625 C 8.1875 -7.4375 6 -12.9375 6 -20.0625 C 6 -29.945312 9.8125 -37.328125 17.4375 -42.203125 C 23.195312 -45.703125 31.265625 -48.390625 41.640625 -50.265625 L 60.015625 -53.453125 C 60.265625 -62.328125 59.515625 -68.832031 57.765625 -72.96875 C 55.265625 -78.84375 50.953125 -81.78125 44.828125 -81.78125 C 34.203125 -81.78125 28.828125 -78.21875 28.703125 -71.09375 C 28.703125 -69.832031 29.421875 -68.359375 30.859375 -66.671875 C 32.296875 -64.984375 33.015625 -64.078125 33.015625 -63.953125 C 33.140625 -62.078125 32.234375 -60.515625 30.296875 -59.265625 C 28.359375 -58.015625 26.578125 -57.578125 24.953125 -57.953125 C 18.691406 -57.953125 15.625 -61.421875 15.75 -68.359375 C 15.875 -75.304688 20.191406 -80.53125 28.703125 -84.03125 C 33.953125 -86.03125 39.515625 -87.03125 45.390625 -87.03125 C 55.265625 -87.03125 62.640625 -84.28125 67.515625 -78.78125 C 72.398438 -72.769531 74.84375 -63.265625 74.84375 -50.265625 L 74.84375 -9.375 C 74.84375 -8.125 75.28125 -7.125 76.15625 -6.375 C 77.03125 -5.625 78.03125 -5.25 79.15625 -5.25 Z M 60.015625 -22.875 L 60.015625 -47.265625 C 49.140625 -45.890625 40.203125 -43.828125 33.203125 -41.078125 C 29.953125 -39.828125 27.257812 -37.515625 25.125 -34.140625 C 23 -30.765625 21.9375 -27.070312 21.9375 -23.0625 C 21.9375 -19.0625 23.34375 -15.6875 26.15625 -12.9375 C 28.976562 -10.1875 32.359375 -8.71875 36.296875 -8.53125 C 40.234375 -8.34375 44.421875 -9.65625 48.859375 -12.46875 C 53.296875 -15.28125 57.015625 -18.75 60.015625 -22.875 Z M 60.015625 -22.875 "/></g></g></g><g fill="#0b0b0b" fill-opacity="1"><g transform="translate(223.571084, 480.083401)"><g><path d="M 20.0625 -9.375 L 20.0625 -74.09375 C 19.9375 -78.34375 17.8125 -80.46875 13.6875 -80.46875 L 5.0625 -80.46875 L 5.0625 -85.71875 L 35.828125 -85.71875 L 35.828125 -68.453125 C 37.203125 -71.835938 39.765625 -75.46875 43.515625 -79.34375 C 49.140625 -84.96875 55.078125 -87.78125 61.328125 -87.78125 C 65.078125 -87.78125 68.078125 -86.53125 70.328125 -84.03125 C 72.585938 -81.53125 73.71875 -78.53125 73.71875 -75.03125 C 73.71875 -68.144531 70.585938 -64.390625 64.328125 -63.765625 C 61.828125 -69.273438 57.703125 -72.03125 51.953125 -72.03125 C 47.828125 -72.03125 44.078125 -69.960938 40.703125 -65.828125 C 37.328125 -61.703125 35.640625 -57.015625 35.640625 -51.765625 L 35.640625 -9.375 C 36.015625 -6.5 37.453125 -5.0625 39.953125 -5.0625 L 50.828125 -5.0625 L 50.828125 0 L 5.25 0 L 5.25 -5.0625 L 15.75 -5.0625 C 18 -5.0625 19.4375 -6.5 20.0625 -9.375 Z M 20.0625 -9.375 "/></g></g></g><g fill="#0b0b0b" fill-opacity="1"><g transform="translate(282.085994, 480.083401)"><g><path d="M 60.390625 -5.0625 C 65.765625 -4.6875 68.453125 -5.625 68.453125 -7.875 C 68.453125 -9 68.015625 -10 67.140625 -10.875 L 33.953125 -42.953125 L 33.765625 -9.1875 C 34.140625 -6.4375 35.515625 -5.0625 37.890625 -5.0625 L 48.390625 -5.0625 L 48.390625 0 L 3.9375 0 L 3.9375 -5.0625 L 14.625 -5.0625 C 17 -5.0625 18.375 -6.4375 18.75 -9.1875 L 18.75 -119.859375 C 18.375 -122.609375 17 -123.984375 14.625 -123.984375 L 3.9375 -123.984375 L 3.9375 -129.046875 L 33.953125 -129.046875 L 33.953125 -46.703125 L 47.078125 -57.015625 L 65.453125 -73.71875 C 66.703125 -74.59375 67.328125 -75.6875 67.328125 -77 C 67.328125 -78.3125 66.328125 -78.96875 64.328125 -78.96875 L 53.640625 -78.96875 L 53.640625 -83.84375 L 98.28125 -83.84375 L 98.28125 -78.96875 L 89.65625 -78.59375 C 85.03125 -78.34375 79.28125 -74.898438 72.40625 -68.265625 L 49.328125 -50.453125 C 50.578125 -48.578125 54.390625 -44.453125 60.765625 -38.078125 C 82.773438 -16.066406 96.03125 -5.0625 100.53125 -5.0625 L 106.90625 -5.0625 L 106.90625 0 L 60.390625 0 Z M 60.390625 -5.0625 "/></g></g></g><g fill="#0b0b0b" fill-opacity="1"><g transform="translate(372.672117, 480.083401)"><g><path d="M 80.84375 -43.515625 L 21.1875 -43.515625 C 21.1875 -32.515625 23.941406 -23.945312 29.453125 -17.8125 C 35.078125 -11.1875 43.328125 -7.875 54.203125 -7.875 C 59.953125 -7.875 67.394531 -10.75 76.53125 -16.5 L 78.96875 -14.625 C 70.082031 -3.75 59.078125 1.6875 45.953125 1.6875 C 32.828125 1.6875 22.507812 -2.25 15 -10.125 C 8 -17.75 4.5 -27.875 4.5 -40.5 C 4.5 -53.132812 8.28125 -64.046875 15.84375 -73.234375 C 23.414062 -82.429688 33.578125 -87.03125 46.328125 -87.03125 C 56.828125 -87.03125 65.265625 -83.492188 71.640625 -76.421875 C 78.023438 -69.359375 81.21875 -60.703125 81.21875 -50.453125 C 81.21875 -49.078125 81.09375 -46.765625 80.84375 -43.515625 Z M 64.703125 -50.265625 C 64.703125 -59.265625 63.046875 -66.640625 59.734375 -72.390625 C 56.421875 -78.148438 51.453125 -81.03125 44.828125 -81.03125 C 38.203125 -81.03125 32.632812 -78.335938 28.125 -72.953125 C 23.625 -67.578125 21.375 -60.140625 21.375 -50.640625 C 44.757812 -50.015625 59.203125 -49.890625 64.703125 -50.265625 Z M 64.703125 -50.265625 "/></g></g></g><g fill="#0b0b0b" fill-opacity="1"><g transform="translate(442.064949, 480.083401)"><g><path d="M 24.203125 -101.46875 L 33.765625 -101.46875 L 33.765625 -78.40625 L 57.203125 -78.78125 L 56.828125 -70.140625 L 33.765625 -70.140625 L 33.765625 -21.75 C 33.765625 -13.375 37.015625 -9.1875 43.515625 -9.1875 C 46.390625 -9.1875 49.953125 -10.3125 54.203125 -12.5625 L 55.515625 -10.5 C 51.265625 -1.875 44.765625 2.4375 36.015625 2.4375 C 24.003906 2.1875 18 -4.375 18 -17.25 L 18 -70.140625 L 3.9375 -69.765625 L 3.9375 -74.84375 C 4.8125 -75.09375 6 -75.40625 7.5 -75.78125 C 13.25 -77.15625 17.4375 -79.875 20.0625 -83.9375 C 22.695312 -88 24.078125 -93.84375 24.203125 -101.46875 Z M 24.203125 -101.46875 "/></g></g></g><g fill="#0b0b0b" fill-opacity="1"><g transform="translate(484.07538, 480.083401)"><g><path d="M 27 -124.921875 C 29.757812 -124.921875 32.109375 -123.984375 34.046875 -122.109375 C 35.984375 -120.234375 36.984375 -117.882812 37.046875 -115.0625 C 37.109375 -112.25 36.078125 -109.84375 33.953125 -107.84375 C 31.828125 -105.84375 29.445312 -104.84375 26.8125 -104.84375 C 24.1875 -104.84375 21.84375 -105.84375 19.78125 -107.84375 C 17.71875 -109.84375 16.6875 -112.125 16.6875 -114.6875 C 16.6875 -117.257812 17.71875 -119.609375 19.78125 -121.734375 C 21.84375 -123.859375 24.25 -124.921875 27 -124.921875 Z M 35.453125 -85.53125 L 35.453125 -9.375 C 35.453125 -6.5 36.828125 -5.0625 39.578125 -5.0625 L 50.453125 -5.0625 L 50.453125 0 L 5.0625 0 L 5.0625 -5.0625 L 15.9375 -5.0625 C 18.6875 -5.0625 20.0625 -6.5 20.0625 -9.375 L 20.0625 -76.15625 C 19.6875 -79.03125 18.3125 -80.46875 15.9375 -80.46875 L 5.0625 -80.46875 L 5.0625 -85.53125 Z M 35.453125 -85.53125 "/></g></g></g><g fill="#0b0b0b" fill-opacity="1"><g transform="translate(519.521511, 480.083401)"><g><path d="M 107.28125 -5.0625 L 107.28125 0 L 61.515625 0 L 61.515625 -5.0625 L 72.59375 -5.0625 C 74.96875 -5.0625 76.34375 -6.5 76.71875 -9.375 L 76.71875 -53.828125 C 76.71875 -61.078125 74.835938 -66.734375 71.078125 -70.796875 C 67.328125 -74.867188 62.515625 -76.90625 56.640625 -76.90625 C 50.765625 -76.90625 45.328125 -74.96875 40.328125 -71.09375 C 35.578125 -67.082031 33.203125 -63.328125 33.203125 -59.828125 L 33.203125 -9.375 C 33.578125 -6.5 35.015625 -5.0625 37.515625 -5.0625 L 48.390625 -5.0625 L 48.390625 0 L 2.625 0 L 2.625 -5.0625 L 13.5 -5.0625 C 16 -5.0625 17.4375 -6.5 17.8125 -9.375 L 17.8125 -74.28125 C 17.6875 -78.53125 15.5625 -80.65625 11.4375 -80.65625 L 2.625 -80.65625 L 2.625 -85.71875 L 33.390625 -85.71875 L 33.390625 -80.65625 C 33.265625 -79.15625 33.203125 -77.40625 33.203125 -75.40625 L 33.203125 -71.65625 C 34.203125 -74.03125 36.828125 -77.03125 41.078125 -80.65625 C 47.453125 -85.65625 54.390625 -88.15625 61.890625 -88.15625 C 82.023438 -88.15625 92.09375 -77.460938 92.09375 -56.078125 L 92.09375 -9.375 C 92.46875 -6.5 93.90625 -5.0625 96.40625 -5.0625 Z M 107.28125 -5.0625 "/></g></g></g><g fill="#0b0b0b" fill-opacity="1"><g transform="translate(613.29601, 480.083401)"><g><path d="M 66.203125 -87.03125 L 96.40625 -87.03125 L 92.65625 -77.09375 L 71.09375 -78.96875 C 76.96875 -73.46875 79.96875 -67.148438 80.09375 -60.015625 C 80.34375 -54.390625 78.84375 -48.890625 75.59375 -43.515625 C 72.34375 -38.140625 68.148438 -34.140625 63.015625 -31.515625 C 56.515625 -27.890625 50.078125 -26.078125 43.703125 -26.078125 C 41.703125 -26.078125 39.953125 -26.328125 38.453125 -26.828125 L 33.203125 -22.3125 C 31.078125 -20.1875 30.015625 -18.25 30.015625 -16.5 C 30.015625 -13.625 31.640625 -11.625 34.890625 -10.5 C 36.390625 -10 39.390625 -9.625 43.890625 -9.375 L 73.15625 -7.125 C 87.53125 -6.125 94.71875 0.8125 94.71875 13.6875 C 94.71875 23.570312 90.242188 32.203125 81.296875 39.578125 C 72.359375 46.953125 60.328125 50.640625 45.203125 50.640625 C 33.953125 50.640625 24.570312 48.015625 17.0625 42.765625 C 9.5625 37.765625 5.8125 31.539062 5.8125 24.09375 C 5.8125 16.65625 8.375 11.0625 13.5 7.3125 C 16.875 4.4375 21.316406 2.625 26.828125 1.875 C 18.941406 -0.125 15 -3.6875 15 -8.8125 C 15 -12.6875 17.25 -16.6875 21.75 -20.8125 C 23.507812 -22.3125 26.828125 -24.566406 31.703125 -27.578125 C 27.953125 -27.703125 23.507812 -30.078125 18.375 -34.703125 C 13.25 -39.328125 10.625 -45.140625 10.5 -52.140625 C 10.125 -63.015625 13.8125 -71.546875 21.5625 -77.734375 C 29.320312 -83.929688 38.953125 -87.09375 50.453125 -87.21875 C 57.078125 -87.21875 62.328125 -87.15625 66.203125 -87.03125 Z M 45.484375 -32.640625 C 51.296875 -32.640625 55.984375 -34.671875 59.546875 -38.734375 C 63.109375 -42.796875 64.796875 -48.359375 64.609375 -55.421875 C 64.421875 -62.484375 62.828125 -68.082031 59.828125 -72.21875 C 56.203125 -77.84375 51.171875 -80.65625 44.734375 -80.65625 C 38.296875 -80.65625 33.453125 -78.398438 30.203125 -73.890625 C 26.953125 -69.390625 25.328125 -63.546875 25.328125 -56.359375 C 25.328125 -49.171875 27.234375 -43.421875 31.046875 -39.109375 C 34.859375 -34.796875 39.671875 -32.640625 45.484375 -32.640625 Z M 54.765625 5.8125 L 35.265625 4.125 C 31.890625 4.25 28.640625 5.8125 25.515625 8.8125 C 21.753906 11.9375 19.875 16.0625 19.875 21.1875 C 19.875 28.945312 22.34375 34.796875 27.28125 38.734375 C 32.226562 42.671875 39.171875 44.640625 48.109375 44.640625 C 57.046875 44.640625 64.640625 42.390625 70.890625 37.890625 C 77.148438 33.390625 80.28125 27.445312 80.28125 20.0625 C 80.28125 14.9375 78.15625 11.4375 73.90625 9.5625 C 70.519531 7.9375 64.140625 6.6875 54.765625 5.8125 Z M 54.765625 5.8125 "/></g></g></g><g fill="#0b0b0b" fill-opacity="1"><g transform="translate(694.129457, 480.083401)"><g/></g></g><g fill="#0b0b0b" fill-opacity="1"><g transform="translate(742.329091, 480.083401)"><g><path d="M 110.28125 -5.0625 L 110.28125 0 L 79.34375 0 L 80.09375 -16.5 C 77.84375 -11.875 74.085938 -7.8125 68.828125 -4.3125 C 62.703125 0.1875 55.640625 2.4375 47.640625 2.4375 C 35.140625 2.4375 25.570312 -1.84375 18.9375 -10.40625 C 12.3125 -18.96875 9 -30.03125 9 -43.59375 C 9 -57.164062 13.625 -68.390625 22.875 -77.265625 C 32.132812 -86.148438 43.515625 -90.34375 57.015625 -89.84375 C 62.265625 -89.21875 67.144531 -87.96875 71.65625 -86.09375 C 75.65625 -83.96875 78.28125 -81.78125 79.53125 -79.53125 L 79.53125 -120.046875 C 79.40625 -124.421875 77.15625 -126.609375 72.78125 -126.609375 L 63.953125 -126.609375 L 63.953125 -131.859375 L 94.90625 -131.859375 L 94.90625 -9.5625 C 95.15625 -6.5625 96.53125 -5.0625 99.03125 -5.0625 Z M 79.53125 -43.328125 L 79.53125 -67.140625 C 78.15625 -71.398438 74.960938 -75.09375 69.953125 -78.21875 C 64.953125 -81.34375 59.171875 -82.90625 52.609375 -82.90625 C 46.046875 -82.90625 40.265625 -80.28125 35.265625 -75.03125 C 29.390625 -68.644531 26.015625 -59.203125 25.140625 -46.703125 C 24.390625 -37.078125 26.703125 -28.507812 32.078125 -21 C 37.828125 -12.625 45.203125 -8.4375 54.203125 -8.4375 C 63.203125 -8.4375 69.894531 -12.25 74.28125 -19.875 C 77.78125 -26.007812 79.53125 -33.828125 79.53125 -43.328125 Z M 79.53125 -43.328125 "/></g></g></g><g fill="#0b0b0b" fill-opacity="1"><g transform="translate(837.979078, 480.083401)"><g><path d="M 90.03125 -5.25 L 90.03125 0 L 60.015625 0 L 60.015625 -15.375 C 48.890625 -3.625 38.390625 2.25 28.515625 2.25 C 21.878906 2.25 16.5625 0.3125 12.5625 -3.5625 C 8.1875 -7.4375 6 -12.9375 6 -20.0625 C 6 -29.945312 9.8125 -37.328125 17.4375 -42.203125 C 23.195312 -45.703125 31.265625 -48.390625 41.640625 -50.265625 L 60.015625 -53.453125 C 60.265625 -62.328125 59.515625 -68.832031 57.765625 -72.96875 C 55.265625 -78.84375 50.953125 -81.78125 44.828125 -81.78125 C 34.203125 -81.78125 28.828125 -78.21875 28.703125 -71.09375 C 28.703125 -69.832031 29.421875 -68.359375 30.859375 -66.671875 C 32.296875 -64.984375 33.015625 -64.078125 33.015625 -63.953125 C 33.140625 -62.078125 32.234375 -60.515625 30.296875 -59.265625 C 28.359375 -58.015625 26.578125 -57.578125 24.953125 -57.953125 C 18.691406 -57.953125 15.625 -61.421875 15.75 -68.359375 C 15.875 -75.304688 20.191406 -80.53125 28.703125 -84.03125 C 33.953125 -86.03125 39.515625 -87.03125 45.390625 -87.03125 C 55.265625 -87.03125 62.640625 -84.28125 67.515625 -78.78125 C 72.398438 -72.769531 74.84375 -63.265625 74.84375 -50.265625 L 74.84375 -9.375 C 74.84375 -8.125 75.28125 -7.125 76.15625 -6.375 C 77.03125 -5.625 78.03125 -5.25 79.15625 -5.25 Z M 60.015625 -22.875 L 60.015625 -47.265625 C 49.140625 -45.890625 40.203125 -43.828125 33.203125 -41.078125 C 29.953125 -39.828125 27.257812 -37.515625 25.125 -34.140625 C 23 -30.765625 21.9375 -27.070312 21.9375 -23.0625 C 21.9375 -19.0625 23.34375 -15.6875 26.15625 -12.9375 C 28.976562 -10.1875 32.359375 -8.71875 36.296875 -8.53125 C 40.234375 -8.34375 44.421875 -9.65625 48.859375 -12.46875 C 53.296875 -15.28125 57.015625 -18.75 60.015625 -22.875 Z M 60.015625 -22.875 "/></g></g></g></g></g></g><g clip-path="url(#642d29a731)"><g clip-path="url(#6b467a521b)"><g transform="matrix(1, 0, 0, 1, 14, -0.000000000000056843)"><g clip-path="url(#8c4de02c51)"><g clip-path="url(#cdcbed6106)"><g clip-path="url(#79baf15c53)"><path fill="#4a584e" d="M 0.960938 0.148438 L 56.484375 0.148438 L 56.484375 22.289062 L 0.960938 22.289062 Z M 0.960938 0.148438 " fill-opacity="1" fill-rule="nonzero"/></g></g></g></g></g></g><g clip-path="url(#a0021f4426)"><g clip-path="url(#4203b49ddc)"><g transform="matrix(1, 0, 0, 1, 91, -0.000000000000056843)"><g clip-path="url(#9d4826b5c3)"><g clip-path="url(#ac75dcd3a7)"><g clip-path="url(#f6868d187b)"><path fill="#0b0b0b" d="M 0.636719 0.148438 L 56.164062 0.148438 L 56.164062 22.289062 L 0.636719 22.289062 Z M 0.636719 0.148438 " fill-opacity="1" fill-rule="nonzero"/></g></g></g></g></g></g><g clip-path="url(#798d87b849)"><g clip-path="url(#4aefffe43a)"><g transform="matrix(1, 0, 0, 1, 168, -0.000000000000056843)"><g clip-path="url(#b28a3e2234)"><g clip-path="url(#618f27378d)"><g clip-path="url(#905803ff56)"><path fill="#4a584e" d="M 0.316406 0.148438 L 55.839844 0.148438 L 55.839844 22.289062 L 0.316406 22.289062 Z M 0.316406 0.148438 " fill-opacity="1" fill-rule="nonzero"/></g></g></g></g></g></g><g clip-path="url(#39d595fd86)"><g clip-path="url(#5efb3cd764)"><g transform="matrix(1, 0, 0, 1, 244, -0.000000000000056843)"><g clip-path="url(#b975ee5934)"><g clip-path="url(#a95adec6d4)"><g clip-path="url(#393948b30b)"><path fill="#0b0b0b" d="M 0.992188 0.148438 L 56.515625 0.148438 L 56.515625 22.289062 L 0.992188 22.289062 Z M 0.992188 0.148438 " fill-opacity="1" fill-rule="nonzero"/></g></g></g></g></g></g></g></g><g transform="matrix(1, 0, 0, 1, 1822, 125)"><g clip-path="url(#c5094f85c7)"><g clip-path="url(#57a7806f9f)"><g transform="matrix(1, 0, 0, 1, 281, 215)"><g clip-path="url(#66427ff47b)"><g fill="#4a584e" fill-opacity="1"><g transform="translate(1.176649, 726.552881)"><g><path d="M 448.5 -98.140625 L 459.234375 -85.875 C 432.148438 -48.050781 403.273438 -22.238281 372.609375 -8.4375 C 341.941406 5.363281 304.375 12.265625 259.90625 12.265625 C 194.476562 12.265625 138.765625 -14.566406 92.765625 -68.234375 C 46.765625 -122.921875 24.144531 -190.003906 24.90625 -269.484375 C 25.675781 -348.960938 48.550781 -413.875 93.53125 -464.21875 C 138.507812 -514.5625 193.96875 -539.734375 259.90625 -539.734375 C 301.8125 -539.734375 332.21875 -537.816406 351.125 -533.984375 C 370.039062 -530.148438 392.789062 -523.125 419.375 -512.90625 L 419.375 -392.53125 L 396.375 -392.53125 C 392.789062 -437.507812 380.773438 -470.09375 360.328125 -490.28125 C 339.890625 -510.46875 307.179688 -519.539062 262.203125 -517.5 C 163.046875 -512.90625 113.46875 -428.316406 113.46875 -263.734375 C 113.46875 -191.160156 126.242188 -131.613281 151.796875 -85.09375 C 178.378906 -39.09375 213.132812 -15.707031 256.0625 -14.9375 C 299 -14.175781 334.265625 -20.3125 361.859375 -33.34375 C 389.460938 -46.382812 418.34375 -67.984375 448.5 -98.140625 Z M 448.5 -98.140625 "/></g></g></g></g></g></g><g clip-path="url(#2baacf3a77)"><g transform="matrix(1, 0, 0, 1, -0.000000000000227374, -0.000000000000028422)"><g clip-path="url(#5a74181d51)"><g fill="#4a584e" fill-opacity="1"><g transform="translate(0.474253, 728.048126)"><g><path d="M 546.484375 -527.296875 L 546.484375 -504.265625 C 519.878906 -504.773438 501.710938 -501.707031 491.984375 -495.0625 C 477.660156 -485.84375 463.332031 -461.28125 449 -421.375 L 282.453125 16.125 L 251.75 16.125 L 71.375 -504.265625 L 13.8125 -504.265625 L 13.8125 -527.296875 L 212.609375 -527.296875 L 212.609375 -504.265625 L 151.203125 -504.265625 L 292.421875 -99.015625 L 418.296875 -421.375 C 427.515625 -445.425781 432.125 -462.820312 432.125 -473.5625 C 432.125 -484.3125 430.585938 -491.988281 427.515625 -496.59375 C 425.460938 -501.707031 409.34375 -504.265625 379.15625 -504.265625 L 379.15625 -527.296875 Z M 546.484375 -527.296875 "/></g></g></g></g></g></g></g></g></g></g></g></svg>