<svg xmlns="http://www.w3.org/2000/svg" xmlns:xlink="http://www.w3.org/1999/xlink" width="2000" zoomAndPan="magnify" viewBox="0 0 1500 1499.999933" height="2000" preserveAspectRatio="xMidYMid meet" version="1.0"><defs><g/></defs><rect x="-150" width="1800" fill="#ffffff" y="-149.999993" height="1799.99992" fill-opacity="1"/><rect x="-150" width="1800" fill="#f5f3ef" y="-149.999993" height="1799.99992" fill-opacity="1"/><g fill="#4a584e" fill-opacity="1"><g transform="translate(397.907811, 734.283253)"><g><path d="M 98.890625 -95.421875 L 98.890625 -91.25 C 94.078125 -91.34375 90.789062 -90.785156 89.03125 -89.578125 C 86.4375 -87.910156 83.84375 -83.46875 81.25 -76.25 L 51.109375 2.921875 L 45.5625 2.921875 L 12.921875 -91.25 L 2.5 -91.25 L 2.5 -95.421875 L 38.46875 -95.421875 L 38.46875 -91.25 L 27.359375 -91.25 L 52.921875 -17.921875 L 75.703125 -76.25 C 77.367188 -80.601562 78.203125 -83.75 78.203125 -85.6875 C 78.203125 -87.632812 77.921875 -89.023438 77.359375 -89.859375 C 76.992188 -90.785156 74.078125 -91.25 68.609375 -91.25 L 68.609375 -95.421875 Z M 98.890625 -95.421875 "/></g></g></g><g fill="#4a584e" fill-opacity="1"><g transform="translate(497.770207, 734.283253)"><g><path d="M 84.859375 -33.1875 L 89.3125 -33.1875 L 87.78125 0 L 7.078125 0 L 7.078125 -4.3125 L 20.140625 -4.3125 L 20.140625 -91.390625 L 7.078125 -91.390625 L 7.078125 -95.703125 L 85.5625 -95.703125 L 85.828125 -67.5 L 81.53125 -67.5 C 80.882812 -75.550781 78.660156 -81.453125 74.859375 -85.203125 C 71.066406 -88.953125 64.863281 -90.921875 56.25 -91.109375 L 32.5 -91.390625 L 32.5 -51.109375 L 49.4375 -51.109375 C 53.425781 -51.109375 56.390625 -52.265625 58.328125 -54.578125 C 60.460938 -57.546875 61.53125 -61.851562 61.53125 -67.5 L 65.828125 -67.5 L 65.828125 -29.03125 L 61.53125 -29.03125 C 61.53125 -34.488281 60.394531 -38.742188 58.125 -41.796875 C 55.851562 -44.859375 52.957031 -46.390625 49.4375 -46.390625 L 32.5 -46.390625 L 32.5 -4.3125 L 58.46875 -4.71875 C 61.0625 -4.71875 64.1875 -5.410156 67.84375 -6.796875 C 71.5 -8.191406 74.207031 -9.769531 75.96875 -11.53125 C 81.53125 -16.71875 84.492188 -23.9375 84.859375 -33.1875 Z M 84.859375 -33.1875 "/></g></g></g><g fill="#4a584e" fill-opacity="1"><g transform="translate(594.715892, 734.283253)"><g><path d="M 65.140625 -7.5 L 38.609375 -45.421875 L 30.140625 -45.421875 L 30.421875 -4.3125 L 43.328125 -4.3125 L 43.328125 0 L 4.71875 0 L 4.71875 -4.3125 L 17.640625 -4.3125 L 17.640625 -91.390625 L 4.71875 -91.390625 L 4.71875 -95.703125 L 46.8125 -95.703125 C 58.007812 -95.703125 66.523438 -93.476562 72.359375 -89.03125 C 78.191406 -84.582031 81.109375 -78.65625 81.109375 -71.25 C 81.109375 -63.84375 78.515625 -57.820312 73.328125 -53.1875 C 68.328125 -49.019531 61.753906 -46.660156 53.609375 -46.109375 L 82.078125 -7.5 C 83.566406 -5.644531 86.859375 -4.488281 91.953125 -4.03125 L 91.953125 0.140625 C 85.191406 -0.136719 74.492188 -0.136719 59.859375 0.140625 L 60 -4.3125 L 63.890625 -4.3125 C 65.179688 -4.582031 65.828125 -5.066406 65.828125 -5.765625 C 65.828125 -6.460938 65.597656 -7.039062 65.140625 -7.5 Z M 42.21875 -49.4375 C 59.070312 -49.4375 67.316406 -56.707031 66.953125 -71.25 C 66.578125 -84.675781 59.304688 -91.390625 45.140625 -91.390625 L 30.421875 -91.390625 L 30.140625 -49.4375 Z M 42.21875 -49.4375 "/></g></g></g><g fill="#4a584e" fill-opacity="1"><g transform="translate(686.105952, 734.283253)"><g><path d="M 46.53125 -4.3125 L 46.53125 0 L 6.8125 0 L 6.8125 -4.3125 L 19.859375 -4.3125 L 19.859375 -91.390625 L 6.8125 -91.390625 L 6.8125 -95.703125 L 46.53125 -95.703125 L 46.53125 -91.390625 L 33.609375 -91.390625 L 33.609375 -4.3125 Z M 46.53125 -4.3125 "/></g></g></g><g fill="#4a584e" fill-opacity="1"><g transform="translate(738.884406, 734.283253)"><g><path d="M 95.96875 -46.671875 C 95.96875 -33.703125 91.6875 -22.539062 83.125 -13.1875 C 74.5625 -3.84375 64.675781 0.644531 53.46875 0.28125 C 36.613281 -0.277344 20.828125 -0.375 6.109375 0 L 6.109375 -4.3125 L 19.171875 -4.3125 L 19.171875 -91.390625 L 6.109375 -91.390625 L 6.109375 -95.703125 C 14.347656 -95.234375 21.660156 -95.046875 28.046875 -95.140625 C 34.441406 -95.234375 43.054688 -95.234375 53.890625 -95.140625 C 66.941406 -94.953125 77.21875 -90.53125 84.71875 -81.875 C 92.21875 -73.21875 95.96875 -61.484375 95.96875 -46.671875 Z M 74.71875 -17.640625 C 79.257812 -24.859375 81.457031 -34.832031 81.3125 -47.5625 C 81.175781 -60.300781 79.347656 -70.097656 75.828125 -76.953125 C 71.484375 -85.742188 64.171875 -90.554688 53.890625 -91.390625 C 45.554688 -91.847656 38.101562 -91.660156 31.53125 -90.828125 L 31.53125 -4.3125 C 37.820312 -3.75 42.566406 -3.46875 45.765625 -3.46875 C 48.960938 -3.46875 51.578125 -3.5625 53.609375 -3.75 C 63.148438 -5.132812 70.1875 -9.765625 74.71875 -17.640625 Z M 74.71875 -17.640625 "/></g></g></g><g fill="#4a584e" fill-opacity="1"><g transform="translate(843.607999, 734.283253)"><g><path d="M 46.53125 -4.3125 L 46.53125 0 L 6.8125 0 L 6.8125 -4.3125 L 19.859375 -4.3125 L 19.859375 -91.390625 L 6.8125 -91.390625 L 6.8125 -95.703125 L 46.53125 -95.703125 L 46.53125 -91.390625 L 33.609375 -91.390625 L 33.609375 -4.3125 Z M 46.53125 -4.3125 "/></g></g></g><g fill="#4a584e" fill-opacity="1"><g transform="translate(896.386406, 734.283253)"><g><path d="M 100.703125 -4.3125 L 100.703125 0 L 64.578125 0 L 64.578125 -4.3125 L 75.703125 -4.3125 L 66.25 -31.671875 L 32.78125 -31.671875 L 27.5 -19.171875 C 25.832031 -14.910156 25 -11.785156 25 -9.796875 C 25 -7.804688 25.273438 -6.394531 25.828125 -5.5625 C 26.390625 -4.726562 29.304688 -4.3125 34.578125 -4.3125 L 34.578125 0 L 4.3125 0 L 4.3125 -4.3125 C 9.125 -4.21875 12.617188 -4.835938 14.796875 -6.171875 C 16.972656 -7.515625 19.351562 -11.847656 21.9375 -19.171875 L 52.078125 -98.328125 L 57.640625 -98.328125 L 90.421875 -4.3125 Z M 34.71875 -36.9375 L 64.3125 -36.9375 L 50.5625 -77.640625 Z M 34.71875 -36.9375 "/></g></g></g><g fill="#4a584e" fill-opacity="1"><g transform="translate(1000.276641, 734.283253)"><g><path d="M 98.328125 -95.703125 L 98.328125 -91.390625 C 92.960938 -91.390625 89.816406 -90.925781 88.890625 -90 C 86.484375 -87.59375 85.28125 -84.03125 85.28125 -79.3125 L 85.5625 2.359375 L 82.359375 2.359375 L 23.609375 -88.203125 L 23.609375 -16.25 C 23.609375 -11.4375 24.765625 -7.914062 27.078125 -5.6875 C 28.003906 -4.769531 31.15625 -4.3125 36.53125 -4.3125 L 36.53125 0 L 5.828125 0 L 5.828125 -4.3125 C 11.015625 -4.3125 14.070312 -4.726562 15 -5.5625 C 17.59375 -7.78125 18.890625 -11.34375 18.890625 -16.25 L 18.890625 -88.203125 C 18.609375 -90.328125 17.21875 -91.390625 14.71875 -91.390625 L 6.9375 -91.390625 L 6.9375 -95.703125 L 34.71875 -95.703125 L 80.703125 -24.171875 L 80.703125 -79.3125 C 80.703125 -84.03125 79.40625 -87.640625 76.8125 -90.140625 C 75.789062 -90.972656 72.734375 -91.390625 67.640625 -91.390625 L 67.640625 -95.703125 Z M 98.328125 -95.703125 "/></g></g></g><g fill="#4a584e" fill-opacity="1"><g transform="translate(468.841399, 835.533244)"><g><path d="M 64.28125 -14.0625 L 65.828125 -12.3125 C 61.941406 -6.882812 57.800781 -3.179688 53.40625 -1.203125 C 49.007812 0.773438 43.625 1.765625 37.25 1.765625 C 27.875 1.765625 19.890625 -2.082031 13.296875 -9.78125 C 6.703125 -17.613281 3.457031 -27.226562 3.5625 -38.625 C 3.675781 -50.019531 6.957031 -59.320312 13.40625 -66.53125 C 19.851562 -73.75 27.800781 -77.359375 37.25 -77.359375 C 43.257812 -77.359375 47.617188 -77.082031 50.328125 -76.53125 C 53.035156 -75.988281 56.296875 -74.984375 60.109375 -73.515625 L 60.109375 -56.265625 L 56.8125 -56.265625 C 56.300781 -62.710938 54.578125 -67.378906 51.640625 -70.265625 C 48.710938 -73.160156 44.023438 -74.460938 37.578125 -74.171875 C 23.367188 -73.515625 16.265625 -61.390625 16.265625 -37.796875 C 16.265625 -27.398438 18.097656 -18.867188 21.765625 -12.203125 C 25.566406 -5.609375 30.546875 -2.253906 36.703125 -2.140625 C 42.859375 -2.035156 47.910156 -2.914062 51.859375 -4.78125 C 55.816406 -6.644531 59.957031 -9.738281 64.28125 -14.0625 Z M 64.28125 -14.0625 "/></g></g></g><g fill="#4a584e" fill-opacity="1"><g transform="translate(535.652516, 835.533244)"><g><path d="M 51.53125 -5.9375 L 30.546875 -35.9375 L 23.84375 -35.9375 L 24.0625 -3.40625 L 34.28125 -3.40625 L 34.28125 0 L 3.734375 0 L 3.734375 -3.40625 L 13.953125 -3.40625 L 13.953125 -72.3125 L 3.734375 -72.3125 L 3.734375 -75.71875 L 37.03125 -75.71875 C 45.894531 -75.71875 52.632812 -73.957031 57.25 -70.4375 C 61.863281 -66.925781 64.171875 -62.238281 64.171875 -56.375 C 64.171875 -50.507812 62.117188 -45.75 58.015625 -42.09375 C 54.066406 -38.789062 48.867188 -36.921875 42.421875 -36.484375 L 64.953125 -5.9375 C 66.117188 -4.46875 68.71875 -3.550781 72.75 -3.1875 L 72.75 0.109375 C 67.394531 -0.105469 58.929688 -0.105469 47.359375 0.109375 L 47.46875 -3.40625 L 50.546875 -3.40625 C 51.578125 -3.625 52.09375 -4.007812 52.09375 -4.5625 C 52.09375 -5.113281 51.90625 -5.570312 51.53125 -5.9375 Z M 33.40625 -39.125 C 46.738281 -39.125 53.257812 -44.875 52.96875 -56.375 C 52.675781 -67 46.925781 -72.3125 35.71875 -72.3125 L 24.0625 -72.3125 L 23.84375 -39.125 Z M 33.40625 -39.125 "/></g></g></g><g fill="#4a584e" fill-opacity="1"><g transform="translate(607.957964, 835.533244)"><g><path d="M 67.140625 -26.265625 L 70.65625 -26.265625 L 69.453125 0 L 5.609375 0 L 5.609375 -3.40625 L 15.9375 -3.40625 L 15.9375 -72.3125 L 5.609375 -72.3125 L 5.609375 -75.71875 L 67.6875 -75.71875 L 67.90625 -53.40625 L 64.5 -53.40625 C 63.988281 -59.78125 62.226562 -64.453125 59.21875 -67.421875 C 56.21875 -70.390625 51.3125 -71.945312 44.5 -72.09375 L 25.71875 -72.3125 L 25.71875 -40.4375 L 39.125 -40.4375 C 42.269531 -40.4375 44.613281 -41.351562 46.15625 -43.1875 C 47.84375 -45.53125 48.6875 -48.9375 48.6875 -53.40625 L 52.09375 -53.40625 L 52.09375 -22.96875 L 48.6875 -22.96875 C 48.6875 -27.289062 47.785156 -30.660156 45.984375 -33.078125 C 44.191406 -35.492188 41.90625 -36.703125 39.125 -36.703125 L 25.71875 -36.703125 L 25.71875 -3.40625 L 46.265625 -3.734375 C 48.316406 -3.734375 50.785156 -4.28125 53.671875 -5.375 C 56.566406 -6.476562 58.710938 -7.726562 60.109375 -9.125 C 64.503906 -13.226562 66.847656 -18.941406 67.140625 -26.265625 Z M 67.140625 -26.265625 "/></g></g></g><g fill="#4a584e" fill-opacity="1"><g transform="translate(684.658869, 835.533244)"><g><path d="M 79.671875 -3.40625 L 79.671875 0 L 51.09375 0 L 51.09375 -3.40625 L 59.890625 -3.40625 L 52.421875 -25.0625 L 25.9375 -25.0625 L 21.765625 -15.171875 C 20.441406 -11.796875 19.78125 -9.320312 19.78125 -7.75 C 19.78125 -6.175781 20 -5.054688 20.4375 -4.390625 C 20.875 -3.734375 23.179688 -3.40625 27.359375 -3.40625 L 27.359375 0 L 3.40625 0 L 3.40625 -3.40625 C 7.21875 -3.332031 9.984375 -3.828125 11.703125 -4.890625 C 13.421875 -5.953125 15.304688 -9.378906 17.359375 -15.171875 L 41.203125 -77.796875 L 45.609375 -77.796875 L 71.53125 -3.40625 Z M 27.46875 -29.234375 L 50.875 -29.234375 L 40 -61.421875 Z M 27.46875 -29.234375 "/></g></g></g><g fill="#4a584e" fill-opacity="1"><g transform="translate(760.260273, 835.533244)"><g><path d="M 70.546875 -75.71875 L 70.765625 -53.40625 L 67.46875 -53.40625 C 67.03125 -59.5625 65.378906 -64.117188 62.515625 -67.078125 C 59.660156 -70.046875 54.644531 -71.71875 47.46875 -72.09375 L 42.421875 -72.3125 L 42.421875 -3.40625 L 52.75 -3.40625 L 52.75 0 L 22.203125 0 L 22.203125 -3.40625 L 32.421875 -3.40625 L 32.421875 -72.3125 L 27.46875 -72.09375 C 20.363281 -71.800781 15.398438 -70.242188 12.578125 -67.421875 C 9.765625 -64.597656 8.023438 -59.925781 7.359375 -53.40625 L 4.171875 -53.40625 L 4.390625 -75.71875 Z M 70.546875 -75.71875 "/></g></g></g><g fill="#4a584e" fill-opacity="1"><g transform="translate(833.664594, 835.533244)"><g><path d="M 36.8125 -3.40625 L 36.8125 0 L 5.390625 0 L 5.390625 -3.40625 L 15.71875 -3.40625 L 15.71875 -72.3125 L 5.390625 -72.3125 L 5.390625 -75.71875 L 36.8125 -75.71875 L 36.8125 -72.3125 L 26.59375 -72.3125 L 26.59375 -3.40625 Z M 36.8125 -3.40625 "/></g></g></g><g fill="#4a584e" fill-opacity="1"><g transform="translate(875.421564, 835.533244)"><g><path d="M 78.234375 -75.5 L 78.234375 -72.203125 C 74.429688 -72.273438 71.832031 -71.832031 70.4375 -70.875 C 68.382812 -69.5625 66.332031 -66.046875 64.28125 -60.328125 L 40.4375 2.3125 L 36.046875 2.3125 L 10.21875 -72.203125 L 1.984375 -72.203125 L 1.984375 -75.5 L 30.4375 -75.5 L 30.4375 -72.203125 L 21.65625 -72.203125 L 41.875 -14.171875 L 59.890625 -60.328125 C 61.210938 -63.773438 61.875 -66.265625 61.875 -67.796875 C 61.875 -69.335938 61.648438 -70.4375 61.203125 -71.09375 C 60.910156 -71.832031 58.601562 -72.203125 54.28125 -72.203125 L 54.28125 -75.5 Z M 78.234375 -75.5 "/></g></g></g><g fill="#4a584e" fill-opacity="1"><g transform="translate(954.430102, 835.533244)"><g><path d="M 67.140625 -26.265625 L 70.65625 -26.265625 L 69.453125 0 L 5.609375 0 L 5.609375 -3.40625 L 15.9375 -3.40625 L 15.9375 -72.3125 L 5.609375 -72.3125 L 5.609375 -75.71875 L 67.6875 -75.71875 L 67.90625 -53.40625 L 64.5 -53.40625 C 63.988281 -59.78125 62.226562 -64.453125 59.21875 -67.421875 C 56.21875 -70.390625 51.3125 -71.945312 44.5 -72.09375 L 25.71875 -72.3125 L 25.71875 -40.4375 L 39.125 -40.4375 C 42.269531 -40.4375 44.613281 -41.351562 46.15625 -43.1875 C 47.84375 -45.53125 48.6875 -48.9375 48.6875 -53.40625 L 52.09375 -53.40625 L 52.09375 -22.96875 L 48.6875 -22.96875 C 48.6875 -27.289062 47.785156 -30.660156 45.984375 -33.078125 C 44.191406 -35.492188 41.90625 -36.703125 39.125 -36.703125 L 25.71875 -36.703125 L 25.71875 -3.40625 L 46.265625 -3.734375 C 48.316406 -3.734375 50.785156 -4.28125 53.671875 -5.375 C 56.566406 -6.476562 58.710938 -7.726562 60.109375 -9.125 C 64.503906 -13.226562 66.847656 -18.941406 67.140625 -26.265625 Z M 67.140625 -26.265625 "/></g></g></g></svg>