<svg xmlns="http://www.w3.org/2000/svg" xmlns:xlink="http://www.w3.org/1999/xlink" width="2000" zoomAndPan="magnify" viewBox="0 0 1500 1499.999933" height="2000" preserveAspectRatio="xMidYMid meet" version="1.0"><defs><g/><clipPath id="09a7cc66dd"><rect x="0" width="304" y="0" height="607"/></clipPath><clipPath id="1aa0147a74"><rect x="0" width="357" y="0" height="609"/></clipPath></defs><g transform="matrix(1, 0, 0, 1, 697, 515)"><g clip-path="url(#09a7cc66dd)"><g fill="#4a584e" fill-opacity="1"><g transform="translate(0.305471, 469.489365)"><g><path d="M 289.578125 -63.359375 L 296.515625 -55.4375 C 279.023438 -31.019531 260.378906 -14.351562 240.578125 -5.4375 C 220.773438 3.46875 196.519531 7.921875 167.8125 7.921875 C 125.570312 7.921875 89.597656 -9.40625 59.890625 -44.0625 C 30.191406 -79.363281 15.585938 -122.671875 16.078125 -173.984375 C 16.578125 -225.304688 31.347656 -267.21875 60.390625 -299.71875 C 89.429688 -332.226562 125.238281 -348.484375 167.8125 -348.484375 C 194.875 -348.484375 214.507812 -347.242188 226.71875 -344.765625 C 238.925781 -342.296875 253.613281 -337.765625 270.78125 -331.171875 L 270.78125 -253.453125 L 255.921875 -253.453125 C 253.609375 -282.492188 245.851562 -303.53125 232.65625 -316.5625 C 219.457031 -329.59375 198.335938 -335.453125 169.296875 -334.140625 C 105.273438 -331.171875 73.265625 -276.550781 73.265625 -170.28125 C 73.265625 -123.425781 81.515625 -84.984375 98.015625 -54.953125 C 115.171875 -25.242188 137.609375 -10.140625 165.328125 -9.640625 C 193.054688 -9.148438 215.828125 -13.113281 233.640625 -21.53125 C 251.460938 -29.945312 270.109375 -43.890625 289.578125 -63.359375 Z M 289.578125 -63.359375 "/></g></g></g></g></g><g transform="matrix(1, 0, 0, 1, 515, 376)"><g clip-path="url(#1aa0147a74)"><g fill="#4a584e" fill-opacity="1"><g transform="translate(0.420848, 470.637502)"><g><path d="M 352.84375 -340.453125 L 352.84375 -325.578125 C 335.664062 -325.910156 323.9375 -323.929688 317.65625 -319.640625 C 308.40625 -313.691406 299.15625 -297.832031 289.90625 -272.0625 L 182.359375 10.40625 L 162.546875 10.40625 L 46.09375 -325.578125 L 8.921875 -325.578125 L 8.921875 -340.453125 L 137.265625 -340.453125 L 137.265625 -325.578125 L 97.625 -325.578125 L 188.8125 -63.921875 L 270.078125 -272.0625 C 276.023438 -287.59375 279 -298.828125 279 -305.765625 C 279 -312.703125 278.007812 -317.65625 276.03125 -320.625 C 274.707031 -323.925781 264.300781 -325.578125 244.8125 -325.578125 L 244.8125 -340.453125 Z M 352.84375 -340.453125 "/></g></g></g></g></g></svg>